<?xml version="1.0" standalone="no"?>
<!DOCTYPE svg PUBLIC "-//W3C//DTD SVG 20010904//EN"
 "http://www.w3.org/TR/2001/REC-SVG-20010904/DTD/svg10.dtd">
<svg version="1.0" xmlns="http://www.w3.org/2000/svg"
 width="2038.000000pt" height="483.000000pt" viewBox="0 0 2038.000000 483.000000"
 preserveAspectRatio="xMidYMid meet">

<g transform="translate(0.000000,483.000000) scale(0.100000,-0.100000)"
fill="#000000" stroke="none">
<path d="M6690 3430 c0 -5 -7 -10 -15 -10 -8 0 -15 -5 -15 -11 0 -14 -25 -39
-39 -39 -6 0 -11 -7 -11 -15 0 -8 -9 -15 -20 -15 -11 0 -20 -4 -20 -10 0 -5
-7 -10 -15 -10 -8 0 -15 -5 -15 -11 0 -14 -25 -39 -39 -39 -6 0 -11 -5 -11
-11 0 -14 -25 -39 -39 -39 -6 0 -11 -4 -11 -10 0 -5 -11 -10 -25 -10 -16 0
-25 -6 -25 -15 0 -8 -4 -15 -10 -15 -5 0 -10 -4 -10 -10 0 -5 9 -10 21 -10 22
0 49 22 49 39 0 6 6 11 13 11 7 0 19 9 27 20 8 11 25 20 37 20 14 0 23 6 23
15 0 8 5 15 11 15 11 0 39 25 39 35 0 10 28 35 39 35 6 0 11 5 11 11 0 6 6 17
14 25 8 8 19 14 25 14 6 0 11 7 11 15 0 9 9 15 25 15 14 0 25 -5 25 -11 0 -17
27 -39 49 -39 12 0 21 -5 21 -11 0 -14 25 -39 39 -39 6 0 11 -7 11 -15 0 -8 5
-15 10 -15 6 0 10 5 10 11 0 14 -25 39 -39 39 -6 0 -11 5 -11 11 0 17 -27 39
-49 39 -12 0 -21 5 -21 11 0 17 -27 39 -49 39 -12 0 -21 -4 -21 -10z"/>
<path d="M14380 3430 c0 -5 -7 -10 -15 -10 -8 0 -15 -5 -15 -11 0 -17 -27 -39
-49 -39 -12 0 -21 -6 -21 -15 0 -8 -5 -15 -11 -15 -14 0 -39 -25 -39 -39 0 -6
-5 -11 -11 -11 -14 0 -39 -25 -39 -39 0 -6 -10 -11 -23 -11 -12 0 -29 -9 -37
-20 -8 -11 -20 -20 -27 -20 -7 0 -13 -5 -13 -11 0 -14 -25 -39 -39 -39 -6 0
-11 -7 -11 -15 0 -8 7 -15 15 -15 8 0 15 7 15 15 0 9 9 15 21 15 22 0 49 22
49 39 0 6 5 11 10 11 14 0 60 46 60 60 0 5 11 10 25 10 20 0 25 5 25 25 0 20
5 25 25 25 14 0 25 5 25 10 0 6 7 10 15 10 8 0 15 5 15 11 0 14 25 39 39 39 6
0 11 7 11 15 0 8 9 15 20 15 11 0 20 5 20 10 0 6 -9 10 -20 10 -11 0 -20 -4
-20 -10z"/>
<path d="M14450 3380 c0 -5 5 -10 10 -10 6 0 10 5 10 10 0 6 -4 10 -10 10 -5
0 -10 -4 -10 -10z"/>
<path d="M14520 3330 c0 -5 7 -10 15 -10 8 0 15 -5 15 -11 0 -14 25 -39 39
-39 6 0 11 -5 11 -10 0 -19 48 -60 70 -60 11 0 20 -7 20 -15 0 -8 7 -15 15
-15 8 0 15 7 15 15 0 8 -6 15 -13 15 -7 0 -19 9 -27 20 -8 11 -25 20 -37 20
-13 0 -23 5 -23 11 0 14 -25 39 -39 39 -6 0 -11 5 -11 11 0 14 -25 39 -39 39
-6 0 -11 -4 -11 -10z"/>
<path d="M6960 3232 c0 -4 9 -14 20 -22 11 -8 20 -20 20 -27 0 -7 6 -13 14
-13 8 0 16 -6 19 -12 2 -8 8 -9 13 -4 5 5 4 11 -3 13 -7 3 -13 11 -13 19 0 8
-6 14 -13 14 -7 0 -19 9 -27 20 -15 20 -30 27 -30 12z"/>
<path d="M5490 3160 c0 -5 7 -10 15 -10 8 0 15 5 15 10 0 6 -7 10 -15 10 -8 0
-15 -4 -15 -10z"/>
<path d="M5300 3060 c0 -5 5 -10 10 -10 6 0 10 5 10 10 0 6 -4 10 -10 10 -5 0
-10 -4 -10 -10z"/>
<path d="M5490 3060 c0 -5 7 -10 15 -10 8 0 15 5 15 10 0 6 -7 10 -15 10 -8 0
-15 -4 -15 -10z"/>
<path d="M5590 3060 c0 -5 11 -10 25 -10 14 0 25 5 25 10 0 6 -11 10 -25 10
-14 0 -25 -4 -25 -10z"/>
<path d="M5710 3045 c0 -16 6 -25 15 -25 9 0 15 9 15 25 0 16 -6 25 -15 25 -9
0 -15 -9 -15 -25z"/>
<path d="M6690 3060 c0 -5 -7 -10 -15 -10 -8 0 -15 -5 -15 -11 0 -11 -25 -39
-35 -39 -10 0 -35 -28 -35 -39 0 -6 -11 -11 -25 -11 -20 0 -25 -5 -25 -25 0
-16 6 -25 15 -25 8 0 15 6 15 13 0 7 9 19 20 27 11 8 20 20 20 27 0 7 11 13
25 13 14 0 25 5 25 10 0 6 5 10 11 10 14 0 39 25 39 39 0 6 7 11 15 11 8 0 15
-7 15 -15 0 -8 5 -15 10 -15 6 0 10 11 10 25 0 22 -4 25 -35 25 -19 0 -35 -4
-35 -10z"/>
<path d="M14380 3060 c0 -5 -7 -10 -15 -10 -8 0 -15 -5 -15 -11 0 -17 -27 -39
-49 -39 -12 0 -21 -4 -21 -10 0 -5 -7 -10 -15 -10 -8 0 -15 -7 -15 -15 0 -8
-4 -15 -10 -15 -5 0 -10 -11 -10 -25 0 -14 5 -25 10 -25 6 0 10 7 10 15 0 8 5
15 11 15 14 0 39 25 39 39 0 6 6 11 13 11 7 0 19 9 27 20 8 11 20 20 27 20 7
0 13 7 13 15 0 8 9 15 20 15 11 0 20 -7 20 -15 0 -8 6 -15 13 -15 7 0 19 -9
27 -20 8 -11 20 -20 27 -20 7 0 13 -5 13 -11 0 -17 27 -39 49 -39 12 0 21 5
21 10 0 6 -4 10 -10 10 -5 0 -10 7 -10 15 0 8 -7 15 -15 15 -8 0 -15 5 -15 10
0 6 -9 10 -21 10 -22 0 -49 22 -49 39 0 6 -7 11 -15 11 -8 0 -15 5 -15 10 0 6
-9 10 -20 10 -11 0 -20 -4 -20 -10z"/>
<path d="M6810 2990 c0 -5 5 -10 10 -10 6 0 10 -7 10 -15 0 -8 6 -15 14 -15 8
0 16 -6 19 -12 2 -8 8 -9 13 -4 5 5 4 11 -3 13 -7 3 -13 11 -13 19 0 8 -7 14
-15 14 -8 0 -15 5 -15 10 0 6 -4 10 -10 10 -5 0 -10 -4 -10 -10z"/>
<path d="M6483 2885 c-7 -8 -13 -19 -13 -25 0 -5 -7 -10 -15 -10 -8 0 -15 -4
-15 -10 0 -5 -9 -10 -21 -10 -22 0 -49 -22 -49 -39 0 -6 -4 -11 -10 -11 -5 0
-10 -4 -10 -10 0 -5 9 -10 20 -10 11 0 20 5 20 10 0 6 7 10 15 10 8 0 15 5 15
11 0 11 25 39 35 39 10 0 35 28 35 39 0 6 7 11 15 11 8 0 15 5 15 10 0 15 -23
12 -37 -5z"/>
<path d="M6930 2875 c0 -19 5 -25 23 -25 12 0 29 -9 37 -20 8 -11 20 -20 27
-20 7 0 13 -5 13 -11 0 -14 25 -39 39 -39 6 0 11 5 11 10 0 6 -7 10 -15 10 -8
0 -15 5 -15 11 0 11 -25 39 -35 39 -8 0 -35 27 -35 35 0 10 -28 35 -39 35 -6
0 -11 -11 -11 -25z"/>
<path d="M14620 2875 c0 -20 5 -25 25 -25 16 0 25 6 25 15 0 8 -7 15 -15 15
-8 0 -15 5 -15 10 0 6 -4 10 -10 10 -5 0 -10 -11 -10 -25z"/>
<path d="M14160 2865 c0 -9 -9 -15 -25 -15 -14 0 -25 -4 -25 -10 0 -5 -5 -10
-11 -10 -14 0 -39 -25 -39 -39 0 -6 -7 -11 -15 -11 -8 0 -15 -4 -15 -10 0 -5
5 -10 11 -10 14 0 39 25 39 39 0 6 11 11 25 11 14 0 25 5 25 10 0 6 5 10 11
10 14 0 39 25 39 39 0 6 -4 11 -10 11 -5 0 -10 -7 -10 -15z"/>
<path d="M14690 2805 c0 -20 5 -25 25 -25 14 0 25 -4 25 -10 0 -5 7 -10 15
-10 8 0 15 5 15 10 0 6 -7 10 -15 10 -8 0 -15 5 -15 11 0 14 -25 39 -39 39 -6
0 -11 -11 -11 -25z"/>
<path d="M5000 2770 c0 -5 7 -10 15 -10 8 0 15 5 15 10 0 6 -7 10 -15 10 -8 0
-15 -4 -15 -10z"/>
<path d="M6690 2695 c0 -8 -5 -15 -11 -15 -14 0 -39 -25 -39 -39 0 -6 -6 -11
-13 -11 -7 0 -19 -9 -27 -20 -8 -11 -25 -20 -37 -20 -13 0 -23 -5 -23 -11 0
-14 -25 -39 -39 -39 -6 0 -11 -5 -11 -11 0 -14 -25 -39 -39 -39 -6 0 -11 -5
-11 -11 0 -17 -27 -39 -49 -39 -12 0 -21 -6 -21 -15 0 -9 9 -15 25 -15 14 0
25 5 25 11 0 17 27 39 49 39 12 0 21 6 21 15 0 8 5 15 11 15 14 0 39 25 39 39
0 6 5 11 11 11 11 0 39 25 39 35 0 10 28 35 39 35 6 0 11 5 11 10 0 6 11 10
25 10 14 0 25 5 25 11 0 11 25 39 35 39 10 0 35 -28 35 -39 0 -6 5 -11 10 -11
14 0 60 -46 60 -60 0 -5 11 -10 25 -10 14 0 25 -4 25 -10 0 -5 7 -10 15 -10 8
0 15 -5 15 -11 0 -14 25 -39 39 -39 6 0 11 -7 11 -15 0 -8 9 -15 20 -15 11 0
20 -4 20 -10 0 -5 7 -10 15 -10 8 0 15 -5 15 -11 0 -13 25 -39 38 -39 6 0 12
-6 15 -12 2 -7 8 -10 12 -6 9 8 -18 38 -34 38 -6 0 -11 5 -11 11 0 14 -25 39
-39 39 -6 0 -11 5 -11 11 0 17 -27 39 -49 39 -12 0 -21 5 -21 11 0 14 -25 39
-39 39 -6 0 -11 5 -11 11 0 11 -25 39 -35 39 -8 0 -35 27 -35 35 0 10 -28 35
-39 35 -6 0 -11 7 -11 15 0 10 -11 15 -35 15 -24 0 -35 -5 -35 -15z"/>
<path d="M14380 2695 c0 -8 -5 -15 -11 -15 -14 0 -39 -25 -39 -39 0 -6 -7 -11
-15 -11 -8 0 -15 -4 -15 -10 0 -5 -9 -10 -21 -10 -22 0 -49 -22 -49 -39 0 -6
-5 -11 -11 -11 -11 0 -39 -25 -39 -35 0 -14 -30 -35 -49 -35 -12 0 -21 -6 -21
-15 0 -8 -5 -15 -11 -15 -14 0 -39 -25 -39 -39 0 -6 -7 -11 -15 -11 -8 0 -15
-9 -15 -20 0 -11 6 -20 13 -20 7 0 19 9 27 20 8 11 20 20 27 20 7 0 13 5 13
11 0 14 25 39 39 39 6 0 11 5 11 11 0 17 27 39 49 39 12 0 21 5 21 11 0 14 25
39 39 39 6 0 11 5 11 11 0 14 25 39 39 39 6 0 11 5 11 10 0 6 11 10 25 10 16
0 25 6 25 15 0 10 11 15 35 15 19 0 35 -5 35 -11 0 -11 25 -39 35 -39 10 0 35
-28 35 -39 0 -6 11 -11 25 -11 14 0 25 -4 25 -10 0 -5 7 -10 15 -10 8 0 15 -6
15 -13 0 -7 9 -19 20 -27 11 -8 20 -20 20 -27 0 -7 5 -13 11 -13 14 0 39 -25
39 -39 0 -6 11 -11 25 -11 14 0 25 -4 25 -10 0 -5 7 -10 15 -10 8 0 15 5 15
10 0 6 -7 10 -15 10 -8 0 -15 5 -15 11 0 14 -25 39 -39 39 -6 0 -11 7 -11 15
0 9 -9 15 -21 15 -19 0 -49 21 -49 35 0 10 -28 35 -39 35 -6 0 -11 5 -11 11 0
17 -27 39 -49 39 -12 0 -21 5 -21 10 0 6 -7 10 -15 10 -8 0 -15 5 -15 11 0 14
-25 39 -39 39 -6 0 -11 7 -11 15 0 8 -9 15 -20 15 -11 0 -20 -7 -20 -15z"/>
<path d="M5300 2670 c0 -5 5 -10 10 -10 6 0 10 5 10 10 0 6 -4 10 -10 10 -5 0
-10 -4 -10 -10z"/>
<path d="M5390 2670 c0 -5 7 -10 15 -10 8 0 15 -7 15 -15 0 -8 5 -15 10 -15 6
0 10 11 10 25 0 20 -5 25 -25 25 -14 0 -25 -4 -25 -10z"/>
<path d="M5520 2670 c0 -5 -7 -10 -15 -10 -8 0 -15 -7 -15 -15 0 -8 7 -15 15
-15 8 0 15 7 15 15 0 8 5 15 10 15 6 0 10 5 10 10 0 6 -4 10 -10 10 -5 0 -10
-4 -10 -10z"/>
<path d="M5610 2655 c0 -16 6 -25 15 -25 9 0 15 9 15 25 0 16 -6 25 -15 25 -9
0 -15 -9 -15 -25z"/>
<path d="M5710 2655 c0 -16 6 -25 15 -25 9 0 15 9 15 25 0 16 -6 25 -15 25 -9
0 -15 -9 -15 -25z"/>
<path d="M5810 2670 c0 -5 5 -10 10 -10 6 0 10 5 10 10 0 6 -4 10 -10 10 -5 0
-10 -4 -10 -10z"/>
<path d="M5000 2600 c0 -5 7 -10 15 -10 8 0 15 5 15 10 0 6 -7 10 -15 10 -8 0
-15 -4 -15 -10z"/>
<path d="M5490 2550 c0 -5 7 -10 15 -10 8 0 15 5 15 10 0 6 -7 10 -15 10 -8 0
-15 -4 -15 -10z"/>
<path d="M5590 2550 c0 -5 5 -10 10 -10 6 0 10 5 10 10 0 6 -4 10 -10 10 -5 0
-10 -4 -10 -10z"/>
<path d="M5710 2550 c0 -5 7 -10 15 -10 8 0 15 5 15 10 0 6 -7 10 -15 10 -8 0
-15 -4 -15 -10z"/>
<path d="M4220 2425 c0 -8 7 -15 15 -15 8 0 15 7 15 15 0 8 -7 15 -15 15 -8 0
-15 -7 -15 -15z"/>
<path d="M4300 2415 c0 -29 6 -31 26 -11 20 20 17 36 -6 36 -15 0 -20 -7 -20
-25z"/>
<path d="M4420 2415 c0 -14 5 -25 10 -25 6 0 10 11 10 25 0 14 -4 25 -10 25
-5 0 -10 -11 -10 -25z"/>
<path d="M4520 2425 c0 -8 5 -15 10 -15 6 0 10 7 10 15 0 8 -4 15 -10 15 -5 0
-10 -7 -10 -15z"/>
<path d="M5000 2425 c0 -8 7 -15 15 -15 8 0 15 7 15 15 0 8 -7 15 -15 15 -8 0
-15 -7 -15 -15z"/>
<path d="M4420 2315 c0 -14 5 -25 10 -25 6 0 10 11 10 25 0 14 -4 25 -10 25
-5 0 -10 -11 -10 -25z"/>
<path d="M6690 2330 c0 -5 -7 -10 -15 -10 -8 0 -15 -5 -15 -11 0 -14 -25 -39
-39 -39 -6 0 -11 -5 -11 -10 0 -14 -46 -60 -60 -60 -5 0 -10 -7 -10 -15 0 -8
7 -15 15 -15 8 0 15 5 15 11 0 16 26 39 45 39 19 0 45 23 45 39 0 6 7 11 15
11 8 0 15 5 15 10 0 6 16 10 35 10 19 0 35 -4 35 -10 0 -5 7 -10 15 -10 8 0
15 -5 15 -11 0 -17 27 -39 48 -39 11 0 22 -6 25 -12 2 -7 8 -10 12 -6 9 8 -18
38 -34 38 -6 0 -11 7 -11 15 0 8 -9 15 -20 15 -11 0 -20 5 -20 10 0 6 -7 10
-15 10 -9 0 -15 9 -15 25 0 22 -4 25 -35 25 -19 0 -35 -4 -35 -10z"/>
<path d="M14400 2330 c0 -5 -11 -10 -25 -10 -14 0 -25 -5 -25 -11 0 -14 -25
-39 -39 -39 -6 0 -11 -7 -11 -15 0 -9 -9 -15 -21 -15 -11 0 -27 -6 -35 -14
-16 -17 -19 -56 -4 -56 6 0 10 7 10 15 0 8 6 15 13 15 7 0 19 9 27 20 8 11 25
20 37 20 14 0 23 6 23 15 0 8 7 15 15 15 8 0 15 5 15 10 0 6 14 10 31 10 30 0
59 -19 59 -39 0 -6 6 -11 13 -11 7 0 19 -9 27 -20 8 -11 20 -20 27 -20 7 0 13
-7 13 -15 0 -8 5 -15 10 -15 15 0 12 39 -4 56 -8 8 -24 14 -35 14 -12 0 -21 6
-21 15 0 8 -5 15 -11 15 -14 0 -39 25 -39 39 0 6 -7 11 -15 11 -8 0 -15 5 -15
10 0 6 -4 10 -10 10 -5 0 -10 -4 -10 -10z"/>
<path d="M4200 2305 c0 -9 9 -15 25 -15 16 0 25 6 25 15 0 9 -9 15 -25 15 -16
0 -25 -6 -25 -15z"/>
<path d="M4300 2305 c0 -8 9 -15 20 -15 11 0 20 7 20 15 0 8 -9 15 -20 15 -11
0 -20 -7 -20 -15z"/>
<path d="M4520 2305 c0 -8 5 -15 10 -15 6 0 10 7 10 15 0 8 -4 15 -10 15 -5 0
-10 -7 -10 -15z"/>
<path d="M4610 2305 c0 -9 9 -15 25 -15 16 0 25 6 25 15 0 9 -9 15 -25 15 -16
0 -25 -6 -25 -15z"/>
<path d="M5000 2265 c0 -16 6 -25 15 -25 9 0 15 9 15 25 0 16 -6 25 -15 25 -9
0 -15 -9 -15 -25z"/>
<path d="M4200 2210 c0 -5 11 -10 25 -10 14 0 25 5 25 10 0 6 -11 10 -25 10
-14 0 -25 -4 -25 -10z"/>
<path d="M4300 2210 c0 -5 9 -10 20 -10 11 0 20 5 20 10 0 6 -9 10 -20 10 -11
0 -20 -4 -20 -10z"/>
<path d="M4420 2210 c0 -5 5 -10 10 -10 6 0 10 5 10 10 0 6 -4 10 -10 10 -5 0
-10 -4 -10 -10z"/>
<path d="M4640 2210 c0 -5 5 -10 10 -10 6 0 10 5 10 10 0 6 -4 10 -10 10 -5 0
-10 -4 -10 -10z"/>
<path d="M3780 2185 c0 -13 -39 -15 -290 -15 -187 0 -290 -4 -290 -10 0 -7
145 -10 415 -10 l415 0 0 25 c0 20 -5 25 -25 25 -16 0 -25 -6 -25 -15 0 -8 -7
-15 -15 -15 -8 0 -15 7 -15 15 0 12 -16 15 -85 15 -69 0 -85 -3 -85 -15z"/>
<path d="M6470 2135 c0 -8 -5 -15 -11 -15 -14 0 -39 -25 -39 -39 0 -6 -11 -11
-25 -11 -20 0 -25 -5 -25 -24 0 -13 -6 -26 -12 -29 -7 -2 -10 -8 -6 -12 8 -9
38 18 38 34 0 6 7 11 15 11 8 0 15 5 15 10 0 6 11 10 25 10 14 0 25 5 25 11 0
14 25 39 39 39 6 0 11 7 11 15 0 9 -9 15 -25 15 -16 0 -25 -6 -25 -15z"/>
<path d="M6930 2135 c0 -8 5 -15 11 -15 11 0 39 -25 39 -35 0 -14 30 -35 49
-35 12 0 21 -6 21 -15 0 -8 6 -15 14 -15 8 0 16 -6 19 -12 2 -8 8 -9 13 -4 5
5 4 11 -3 13 -7 3 -13 11 -13 19 0 8 -5 14 -11 14 -14 0 -39 25 -39 39 0 6 -5
11 -11 11 -14 0 -39 25 -39 39 0 6 -11 11 -25 11 -16 0 -25 -6 -25 -15z"/>
<path d="M7540 2139 c0 -14 -25 -39 -39 -39 -6 0 -11 -7 -11 -15 0 -9 9 -15
25 -15 20 0 25 5 25 25 0 16 6 25 15 25 8 0 15 7 15 15 0 8 -7 15 -15 15 -8 0
-15 -5 -15 -11z"/>
<path d="M8250 2139 c0 -14 -25 -39 -39 -39 -6 0 -11 -7 -11 -15 0 -10 11 -15
35 -15 34 0 35 1 35 40 0 22 -4 40 -10 40 -5 0 -10 -5 -10 -11z"/>
<path d="M14160 2135 c0 -8 -7 -15 -15 -15 -8 0 -15 -4 -15 -10 0 -5 -11 -10
-25 -10 -14 0 -25 -5 -25 -11 0 -14 -25 -39 -39 -39 -6 0 -11 -11 -11 -25 0
-14 5 -25 11 -25 14 0 39 25 39 39 0 6 5 11 11 11 14 0 39 25 39 39 0 6 7 11
15 11 8 0 15 5 15 10 0 6 9 10 20 10 11 0 20 7 20 15 0 8 -9 15 -20 15 -11 0
-20 -7 -20 -15z"/>
<path d="M14600 2135 c0 -8 9 -15 20 -15 11 0 20 -4 20 -10 0 -5 7 -10 15 -10
8 0 15 -7 15 -15 0 -9 9 -15 21 -15 22 0 49 -22 49 -39 0 -6 7 -11 15 -11 8 0
15 7 15 15 0 8 -5 15 -11 15 -14 0 -39 25 -39 39 0 6 -11 11 -25 11 -14 0 -25
5 -25 10 0 6 -7 10 -15 10 -8 0 -15 7 -15 15 0 8 -9 15 -20 15 -11 0 -20 -7
-20 -15z"/>
<path d="M15210 2135 c0 -8 -5 -15 -11 -15 -14 0 -39 -25 -39 -39 0 -6 16 -11
35 -11 31 0 35 3 35 25 0 14 5 25 10 25 6 0 10 7 10 15 0 8 -9 15 -20 15 -11
0 -20 -7 -20 -15z"/>
<path d="M15940 2135 c0 -8 -5 -15 -11 -15 -14 0 -39 -25 -39 -39 0 -6 11 -11
25 -11 20 0 25 5 25 25 0 14 5 25 10 25 6 0 10 7 10 15 0 8 -4 15 -10 15 -5 0
-10 -7 -10 -15z"/>
<path d="M4420 2110 c0 -5 5 -10 10 -10 6 0 10 5 10 10 0 6 -4 10 -10 10 -5 0
-10 -4 -10 -10z"/>
<path d="M3340 2085 c0 -9 9 -15 25 -15 16 0 25 6 25 15 0 9 -9 15 -25 15 -16
0 -25 -6 -25 -15z"/>
<path d="M3420 2085 c0 -8 5 -15 10 -15 6 0 10 7 10 15 0 8 -4 15 -10 15 -5 0
-10 -7 -10 -15z"/>
<path d="M3560 2085 c0 -9 9 -15 25 -15 16 0 25 6 25 15 0 9 -9 15 -25 15 -16
0 -25 -6 -25 -15z"/>
<path d="M3640 2085 c0 -8 5 -15 10 -15 6 0 10 7 10 15 0 8 -4 15 -10 15 -5 0
-10 -7 -10 -15z"/>
<path d="M3780 2085 c0 -8 7 -15 15 -15 8 0 15 -4 15 -10 0 -5 5 -10 10 -10 6
0 10 11 10 25 0 20 -5 25 -25 25 -16 0 -25 -6 -25 -15z"/>
<path d="M3860 2085 c0 -8 5 -15 10 -15 6 0 10 7 10 15 0 8 -4 15 -10 15 -5 0
-10 -7 -10 -15z"/>
<path d="M3980 2085 c0 -9 9 -15 25 -15 16 0 25 6 25 15 0 9 -9 15 -25 15 -16
0 -25 -6 -25 -15z"/>
<path d="M7660 2025 c0 -73 1 -75 25 -75 16 0 25 6 25 15 0 8 7 15 15 15 10 0
15 11 15 35 l0 35 145 0 c147 0 162 -4 131 -36 -11 -10 -41 -14 -110 -14 -57
0 -96 -4 -96 -10 0 -6 43 -10 110 -10 91 0 110 -3 110 -15 0 -8 5 -15 10 -15
6 0 10 32 10 75 l0 75 -195 0 -195 0 0 -75z"/>
<path d="M15350 2025 c0 -60 3 -75 15 -75 8 0 15 7 15 15 0 8 5 15 10 15 6 0
10 16 10 35 l0 35 170 0 170 0 0 25 0 25 -195 0 -195 0 0 -75z"/>
<path d="M5490 2035 c0 -8 7 -15 15 -15 8 0 15 7 15 15 0 8 -7 15 -15 15 -8 0
-15 -7 -15 -15z"/>
<path d="M5590 2035 c0 -8 5 -15 10 -15 6 0 10 7 10 15 0 8 -4 15 -10 15 -5 0
-10 -7 -10 -15z"/>
<path d="M5710 2035 c0 -8 7 -15 15 -15 8 0 15 7 15 15 0 8 -7 15 -15 15 -8 0
-15 -7 -15 -15z"/>
<path d="M4200 2010 c0 -5 5 -10 10 -10 6 0 10 5 10 10 0 6 -4 10 -10 10 -5 0
-10 -4 -10 -10z"/>
<path d="M4300 2010 c0 -5 9 -10 20 -10 11 0 20 5 20 10 0 6 -9 10 -20 10 -11
0 -20 -4 -20 -10z"/>
<path d="M4420 2010 c0 -5 5 -10 10 -10 6 0 10 5 10 10 0 6 -4 10 -10 10 -5 0
-10 -4 -10 -10z"/>
<path d="M15720 2010 c0 -6 -27 -10 -60 -10 -33 0 -60 -4 -60 -10 0 -6 30 -10
70 -10 63 0 70 2 70 20 0 11 -4 20 -10 20 -5 0 -10 -4 -10 -10z"/>
<path d="M7533 1985 c-7 -8 -13 -19 -13 -25 0 -5 -5 -10 -11 -10 -14 0 -39
-25 -39 -39 0 -6 16 -11 35 -11 31 0 35 3 35 25 0 16 6 25 15 25 9 0 15 9 15
25 0 27 -18 32 -37 10z"/>
<path d="M7760 1990 c0 -5 7 -10 15 -10 8 0 15 5 15 10 0 6 -7 10 -15 10 -8 0
-15 -4 -15 -10z"/>
<path d="M8243 1985 c-7 -8 -13 -19 -13 -25 0 -5 -7 -10 -15 -10 -9 0 -15 -9
-15 -25 0 -22 4 -25 35 -25 l35 0 0 50 c0 52 -6 59 -27 35z"/>
<path d="M15210 1975 c0 -14 -5 -25 -11 -25 -14 0 -39 -25 -39 -39 0 -6 16
-11 35 -11 31 0 35 3 35 25 0 14 5 25 10 25 6 0 10 11 10 25 0 18 -5 25 -20
25 -15 0 -20 -7 -20 -25z"/>
<path d="M15520 1990 c0 -5 11 -10 25 -10 14 0 25 5 25 10 0 6 -11 10 -25 10
-14 0 -25 -4 -25 -10z"/>
<path d="M15940 1990 c0 -5 -7 -10 -15 -10 -8 0 -15 -5 -15 -11 0 -14 -25 -39
-39 -39 -6 0 -11 -7 -11 -15 0 -11 11 -15 40 -15 29 0 40 4 40 15 0 8 5 15 10
15 6 0 10 16 10 35 0 19 -4 35 -10 35 -5 0 -10 -4 -10 -10z"/>
<path d="M16280 1990 c0 -5 5 -10 10 -10 6 0 10 5 10 10 0 6 -4 10 -10 10 -5
0 -10 -4 -10 -10z"/>
<path d="M16380 1990 c0 -5 5 -10 10 -10 6 0 10 5 10 10 0 6 -4 10 -10 10 -5
0 -10 -4 -10 -10z"/>
<path d="M16570 1990 c0 -5 7 -10 15 -10 8 0 15 5 15 10 0 6 -7 10 -15 10 -8
0 -15 -4 -15 -10z"/>
<path d="M6710 1965 c0 -9 -9 -15 -21 -15 -22 0 -49 -22 -49 -39 0 -6 -5 -11
-11 -11 -11 0 -39 -25 -39 -35 0 -10 -28 -35 -39 -35 -6 0 -11 -4 -11 -10 0
-5 -11 -10 -25 -10 -14 0 -25 -5 -25 -11 0 -14 -25 -39 -39 -39 -6 0 -11 -5
-11 -11 0 -14 -25 -39 -39 -39 -6 0 -11 -6 -11 -13 0 -7 -9 -19 -20 -27 -21
-15 -27 -40 -10 -40 6 0 10 5 10 11 0 17 27 39 49 39 12 0 21 6 21 15 0 8 5
15 11 15 14 0 39 25 39 39 0 6 5 11 11 11 14 0 39 25 39 39 0 6 7 11 15 11 8
0 15 5 15 10 0 6 9 10 20 10 11 0 20 5 20 10 0 6 7 10 15 10 8 0 15 5 15 11 0
14 25 39 39 39 6 0 11 7 11 15 0 9 9 15 25 15 16 0 25 -6 25 -15 0 -9 9 -15
21 -15 19 0 49 -21 49 -35 0 -10 28 -35 39 -35 6 0 11 -4 11 -10 0 -5 11 -10
25 -10 14 0 25 -5 25 -11 0 -14 25 -39 39 -39 6 0 11 -6 11 -13 0 -7 9 -19 20
-27 11 -8 20 -20 20 -27 0 -7 7 -13 15 -13 8 0 15 -4 15 -10 0 -5 11 -10 25
-10 16 0 25 -6 25 -15 0 -8 5 -15 10 -15 6 0 10 5 10 11 0 14 -25 39 -39 39
-6 0 -11 5 -11 11 0 14 -25 39 -39 39 -6 0 -11 5 -11 11 0 17 -27 39 -49 39
-12 0 -21 5 -21 11 0 11 -25 39 -35 39 -10 0 -35 28 -35 39 0 6 -5 11 -11 11
-14 0 -39 25 -39 39 0 6 -9 11 -21 11 -22 0 -49 22 -49 39 0 6 -7 11 -15 11
-8 0 -15 -7 -15 -15z"/>
<path d="M14380 1965 c0 -8 -5 -15 -11 -15 -14 0 -39 -25 -39 -39 0 -6 -5 -11
-11 -11 -14 0 -39 -25 -39 -39 0 -6 -11 -11 -25 -11 -14 0 -25 -4 -25 -10 0
-5 -5 -10 -11 -10 -11 0 -39 -25 -39 -35 0 -10 -28 -35 -39 -35 -6 0 -11 -5
-11 -11 0 -17 -27 -39 -49 -39 -12 0 -21 -6 -21 -15 0 -8 -7 -15 -15 -15 -9 0
-15 -9 -15 -25 0 -16 6 -25 15 -25 8 0 15 5 15 11 0 14 25 39 39 39 6 0 11 5
11 11 0 17 27 39 49 39 12 0 21 5 21 11 0 14 25 39 39 39 6 0 11 5 11 11 0 17
27 39 49 39 12 0 21 5 21 10 0 6 7 10 15 10 8 0 15 5 15 11 0 14 25 39 39 39
6 0 11 7 11 15 0 8 9 15 20 15 11 0 20 -7 20 -15 0 -8 7 -15 15 -15 8 0 15 -4
15 -10 0 -5 11 -10 25 -10 14 0 25 -5 25 -11 0 -14 25 -39 39 -39 6 0 11 -4
11 -10 0 -5 11 -10 25 -10 14 0 25 -6 25 -13 0 -7 9 -19 20 -27 11 -8 20 -20
20 -27 0 -7 5 -13 11 -13 14 0 39 -25 39 -39 0 -6 5 -11 11 -11 14 0 39 -25
39 -39 0 -6 7 -11 15 -11 9 0 15 9 15 25 0 16 -6 25 -15 25 -8 0 -15 5 -15 11
0 14 -25 39 -39 39 -6 0 -11 7 -11 15 0 9 -9 15 -21 15 -19 0 -49 21 -49 35 0
10 -28 35 -39 35 -6 0 -11 5 -11 10 0 6 -11 10 -25 10 -14 0 -25 5 -25 11 0
14 -25 39 -39 39 -6 0 -11 5 -11 11 0 14 -25 39 -39 39 -6 0 -11 7 -11 15 0 8
-9 15 -20 15 -11 0 -20 -7 -20 -15z"/>
<path d="M5000 1925 c0 -16 6 -25 15 -25 9 0 15 9 15 25 0 16 -6 25 -15 25 -9
0 -15 -9 -15 -25z"/>
<path d="M16570 1940 c0 -5 7 -10 15 -10 8 0 15 5 15 10 0 6 -7 10 -15 10 -8
0 -15 -4 -15 -10z"/>
<path d="M4100 1915 c0 -8 5 -15 10 -15 6 0 10 7 10 15 0 8 -4 15 -10 15 -5 0
-10 -7 -10 -15z"/>
<path d="M4200 1915 c0 -9 9 -15 25 -15 16 0 25 6 25 15 0 9 -9 15 -25 15 -16
0 -25 -6 -25 -15z"/>
<path d="M4300 1915 c0 -8 9 -15 20 -15 11 0 20 7 20 15 0 8 -9 15 -20 15 -11
0 -20 -7 -20 -15z"/>
<path d="M4390 1915 c0 -9 9 -15 25 -15 16 0 25 6 25 15 0 9 -9 15 -25 15 -16
0 -25 -6 -25 -15z"/>
<path d="M4490 1915 c0 -9 9 -15 25 -15 16 0 25 6 25 15 0 9 -9 15 -25 15 -16
0 -25 -6 -25 -15z"/>
<path d="M4610 1915 c0 -9 9 -15 25 -15 16 0 25 6 25 15 0 9 -9 15 -25 15 -16
0 -25 -6 -25 -15z"/>
<path d="M3290 1865 c0 -9 9 -15 25 -15 14 0 25 -4 25 -10 0 -5 11 -10 25 -10
14 0 25 5 25 10 0 6 7 10 15 10 8 0 15 -4 15 -10 0 -5 5 -10 10 -10 6 0 10 11
10 25 0 24 -2 25 -75 25 -60 0 -75 -3 -75 -15z"/>
<path d="M3540 1865 c0 -9 9 -15 24 -15 13 0 27 -6 30 -12 5 -10 7 -10 12 0 3
6 12 12 20 12 10 0 14 -13 14 -45 0 -25 5 -45 10 -45 6 0 10 27 10 60 l0 60
-60 0 c-47 0 -60 -3 -60 -15z"/>
<path d="M3730 1855 c0 -26 24 -35 34 -12 5 10 7 10 12 0 3 -7 12 -13 20 -13
10 0 14 -14 14 -50 0 -27 5 -50 10 -50 6 0 10 27 10 60 0 47 3 60 15 60 8 0
15 -4 15 -10 0 -5 5 -10 10 -10 6 0 10 11 10 25 0 24 -2 25 -75 25 -73 0 -75
-1 -75 -25z"/>
<path d="M3980 1855 c0 -20 5 -25 25 -25 20 0 25 5 25 25 0 20 -5 25 -25 25
-20 0 -25 -5 -25 -25z"/>
<path d="M5000 1865 c0 -8 7 -15 15 -15 8 0 15 7 15 15 0 8 -7 15 -15 15 -8 0
-15 -7 -15 -15z"/>
<path d="M5710 1865 c0 -8 7 -15 15 -15 8 0 15 7 15 15 0 8 -7 15 -15 15 -8 0
-15 -7 -15 -15z"/>
<path d="M5780 1865 c0 -11 11 -15 40 -15 29 0 40 4 40 15 0 11 -11 15 -40 15
-29 0 -40 -4 -40 -15z"/>
<path d="M7660 1805 l0 -75 195 0 195 0 0 60 c0 47 3 60 15 60 8 0 15 7 15 15
0 13 -30 15 -210 15 l-210 0 0 -75z"/>
<path d="M15350 1805 c0 -73 1 -75 25 -75 23 0 25 3 25 50 0 51 10 61 36 36
16 -17 19 -36 4 -36 -5 0 -10 -11 -10 -25 l0 -25 155 0 155 0 0 75 0 75 -195
0 -195 0 0 -75z"/>
<path d="M4100 1805 c0 -14 5 -25 10 -25 6 0 10 11 10 25 0 14 -4 25 -10 25
-5 0 -10 -11 -10 -25z"/>
<path d="M4200 1805 c0 -20 5 -25 25 -25 20 0 25 5 25 25 0 20 -5 25 -25 25
-20 0 -25 -5 -25 -25z"/>
<path d="M4300 1805 c0 -18 5 -25 20 -25 15 0 20 7 20 25 0 18 -5 25 -20 25
-15 0 -20 -7 -20 -25z"/>
<path d="M4420 1805 c0 -14 5 -25 10 -25 6 0 10 11 10 25 0 14 -4 25 -10 25
-5 0 -10 -11 -10 -25z"/>
<path d="M4520 1805 c0 -14 5 -25 10 -25 6 0 10 11 10 25 0 14 -4 25 -10 25
-5 0 -10 -11 -10 -25z"/>
<path d="M4610 1820 c0 -5 7 -10 15 -10 8 0 15 -7 15 -15 0 -8 5 -15 10 -15 6
0 10 11 10 25 0 20 -5 25 -25 25 -14 0 -25 -4 -25 -10z"/>
<path d="M7520 1805 c0 -16 -6 -25 -15 -25 -8 0 -15 -4 -15 -10 0 -5 11 -10
25 -10 20 0 25 5 25 25 0 16 6 25 15 25 8 0 15 5 15 10 0 6 -11 10 -25 10 -20
0 -25 -5 -25 -25z"/>
<path d="M8243 1815 c-7 -8 -13 -19 -13 -25 0 -5 -7 -10 -15 -10 -8 0 -15 -4
-15 -10 0 -5 16 -10 35 -10 33 0 35 2 35 35 0 37 -7 43 -27 20z"/>
<path d="M15210 1820 c0 -5 -7 -10 -15 -10 -8 0 -15 -7 -15 -15 0 -8 -4 -15
-10 -15 -5 0 -10 -4 -10 -10 0 -15 60 -12 76 4 21 22 18 56 -6 56 -11 0 -20
-4 -20 -10z"/>
<path d="M15940 1820 c0 -5 -7 -10 -15 -10 -8 0 -15 -7 -15 -15 0 -8 -4 -15
-10 -15 -5 0 -10 -4 -10 -10 0 -5 16 -10 35 -10 33 0 35 2 35 35 0 19 -4 35
-10 35 -5 0 -10 -4 -10 -10z"/>
<path d="M3860 1770 c0 -5 5 -10 10 -10 6 0 10 5 10 10 0 6 -4 10 -10 10 -5 0
-10 -4 -10 -10z"/>
<path d="M4910 1755 c0 -14 5 -25 10 -25 6 0 10 11 10 25 0 14 -4 25 -10 25
-5 0 -10 -11 -10 -25z"/>
<path d="M5000 1755 c0 -16 6 -25 15 -25 9 0 15 9 15 25 0 16 -6 25 -15 25 -9
0 -15 -9 -15 -25z"/>
<path d="M5830 1745 c0 -8 7 -15 15 -15 8 0 15 7 15 15 0 8 -7 15 -15 15 -8 0
-15 -7 -15 -15z"/>
<path d="M4200 1720 c0 -5 5 -10 10 -10 6 0 10 5 10 10 0 6 -4 10 -10 10 -5 0
-10 -4 -10 -10z"/>
<path d="M4300 1720 c0 -5 5 -10 10 -10 6 0 10 5 10 10 0 6 -4 10 -10 10 -5 0
-10 -4 -10 -10z"/>
<path d="M4420 1720 c0 -5 5 -10 10 -10 6 0 10 5 10 10 0 6 -4 10 -10 10 -5 0
-10 -4 -10 -10z"/>
<path d="M8243 1665 c-7 -8 -13 -23 -13 -35 0 -11 -7 -20 -15 -20 -8 0 -15 -4
-15 -10 0 -5 16 -10 35 -10 35 0 35 0 35 45 0 47 -6 54 -27 30z"/>
<path d="M15210 1655 c0 -14 -5 -25 -11 -25 -11 0 -39 -24 -39 -34 0 -3 16 -6
35 -6 28 0 35 4 35 20 0 11 5 20 10 20 6 0 10 11 10 25 0 18 -5 25 -20 25 -15
0 -20 -7 -20 -25z"/>
<path d="M15940 1670 c0 -5 -7 -10 -15 -10 -8 0 -15 -5 -15 -11 0 -14 -25 -39
-39 -39 -6 0 -11 -4 -11 -10 0 -15 70 -12 86 4 16 16 19 76 4 76 -5 0 -10 -4
-10 -10z"/>
<path d="M3290 1635 c0 -26 24 -35 34 -12 5 10 7 10 12 0 7 -15 54 -17 54 -3
0 6 7 10 15 10 11 0 15 -12 15 -45 0 -25 5 -45 10 -45 6 0 10 20 10 45 0 25
-4 45 -10 45 -5 0 -10 7 -10 15 0 12 -14 15 -65 15 -63 0 -65 -1 -65 -25z"/>
<path d="M3540 1645 c0 -8 -7 -15 -15 -15 -8 0 -15 -4 -15 -10 0 -14 27 -12
34 3 5 10 7 10 12 0 3 -7 12 -13 20 -13 10 0 14 -14 14 -50 0 -27 5 -50 10
-50 6 0 10 27 10 60 0 47 3 60 15 60 11 0 15 -12 15 -45 0 -25 5 -45 10 -45 6
0 10 27 10 60 l0 60 -60 0 c-47 0 -60 -3 -60 -15z"/>
<path d="M3760 1645 c0 -8 -7 -15 -15 -15 -8 0 -15 -4 -15 -10 0 -5 18 -10 40
-10 39 0 40 -1 40 -35 0 -24 -5 -35 -15 -35 -8 0 -15 -7 -15 -15 0 -9 9 -15
25 -15 23 0 25 3 25 50 0 38 4 50 15 50 8 0 15 -4 15 -10 0 -5 5 -10 10 -10 6
0 10 16 10 35 l0 35 -60 0 c-47 0 -60 -3 -60 -15z"/>
<path d="M3980 1635 c0 -14 5 -25 10 -25 6 0 10 -11 10 -25 0 -14 -4 -25 -10
-25 -5 0 -10 -11 -10 -25 0 -20 5 -25 25 -25 24 0 25 2 25 75 0 73 -1 75 -25
75 -20 0 -25 -5 -25 -25z"/>
<path d="M7520 1645 c0 -8 -5 -15 -11 -15 -11 0 -39 -24 -39 -34 0 -3 16 -6
35 -6 33 0 35 2 35 35 0 19 -4 35 -10 35 -5 0 -10 -7 -10 -15z"/>
<path d="M16570 1645 c0 -8 7 -15 15 -15 8 0 15 7 15 15 0 8 -7 15 -15 15 -8
0 -15 -7 -15 -15z"/>
<path d="M4100 1620 c0 -5 5 -10 10 -10 6 0 10 5 10 10 0 6 -4 10 -10 10 -5 0
-10 -4 -10 -10z"/>
<path d="M4200 1620 c0 -5 11 -10 25 -10 14 0 25 5 25 10 0 6 -11 10 -25 10
-14 0 -25 -4 -25 -10z"/>
<path d="M4300 1610 c0 -24 6 -25 26 -6 19 20 18 26 -6 26 -13 0 -20 -7 -20
-20z"/>
<path d="M4420 1610 c0 -11 5 -20 10 -20 6 0 10 9 10 20 0 11 -4 20 -10 20 -5
0 -10 -9 -10 -20z"/>
<path d="M4520 1620 c0 -5 5 -10 10 -10 6 0 10 5 10 10 0 6 -4 10 -10 10 -5 0
-10 -4 -10 -10z"/>
<path d="M4610 1620 c0 -5 11 -10 25 -10 14 0 25 5 25 10 0 6 -11 10 -25 10
-14 0 -25 -4 -25 -10z"/>
<path d="M7660 1560 l0 -70 40 0 c22 0 40 5 40 10 0 6 43 10 110 10 67 0 110
-4 110 -10 0 -5 20 -10 45 -10 l45 0 0 70 0 70 -195 0 -195 0 0 -70z"/>
<path d="M15350 1560 c0 -68 1 -70 25 -70 14 0 25 5 25 10 0 6 60 10 160 10
100 0 160 -4 160 -10 0 -5 5 -10 10 -10 6 0 10 30 10 70 l0 70 -195 0 -195 0
0 -70z"/>
<path d="M2510 1600 c0 -5 7 -10 15 -10 8 0 15 5 15 10 0 6 -7 10 -15 10 -8 0
-15 -4 -15 -10z"/>
<path d="M2780 1600 c0 -5 7 -10 15 -10 8 0 15 5 15 10 0 6 -7 10 -15 10 -8 0
-15 -4 -15 -10z"/>
<path d="M8640 1600 c0 -5 5 -10 10 -10 6 0 10 5 10 10 0 6 -4 10 -10 10 -5 0
-10 -4 -10 -10z"/>
<path d="M8690 1600 c0 -5 5 -10 10 -10 6 0 10 5 10 10 0 6 -4 10 -10 10 -5 0
-10 -4 -10 -10z"/>
<path d="M9100 1600 c0 -5 7 -10 15 -10 8 0 15 5 15 10 0 6 -7 10 -15 10 -8 0
-15 -4 -15 -10z"/>
<path d="M16570 1600 c0 -5 7 -10 15 -10 8 0 15 5 15 10 0 6 -7 10 -15 10 -8
0 -15 -4 -15 -10z"/>
<path d="M3860 1535 c0 -14 5 -25 10 -25 6 0 10 11 10 25 0 14 -4 25 -10 25
-5 0 -10 -11 -10 -25z"/>
<path d="M3340 1525 c0 -8 7 -15 15 -15 8 0 15 7 15 15 0 8 -7 15 -15 15 -8 0
-15 -7 -15 -15z"/>
<path d="M4100 1515 c0 -14 5 -25 10 -25 6 0 10 5 10 10 0 6 7 10 15 10 8 0
15 7 15 15 0 9 -9 15 -25 15 -20 0 -25 -5 -25 -25z"/>
<path d="M4200 1515 c0 -20 5 -25 25 -25 20 0 25 5 25 25 0 20 -5 25 -25 25
-20 0 -25 -5 -25 -25z"/>
<path d="M4300 1515 c0 -18 5 -25 20 -25 15 0 20 7 20 25 0 18 -5 25 -20 25
-15 0 -20 -7 -20 -25z"/>
<path d="M4390 1515 c0 -20 5 -25 25 -25 20 0 25 5 25 25 0 20 -5 25 -25 25
-20 0 -25 -5 -25 -25z"/>
<path d="M4490 1515 c0 -19 5 -25 21 -25 22 0 49 22 49 39 0 6 -16 11 -35 11
-31 0 -35 -3 -35 -25z"/>
<path d="M4590 1515 c0 -22 4 -25 35 -25 31 0 35 3 35 25 0 22 -4 25 -35 25
-31 0 -35 -3 -35 -25z"/>
<path d="M8250 1515 c0 -14 -4 -25 -10 -25 -5 0 -10 -7 -10 -15 0 -8 -7 -15
-15 -15 -8 0 -15 -4 -15 -10 0 -5 16 -10 35 -10 l35 0 0 50 c0 28 -4 50 -10
50 -5 0 -10 -11 -10 -25z"/>
<path d="M15230 1529 c0 -14 -25 -39 -39 -39 -6 0 -11 -7 -11 -15 0 -8 -4 -15
-10 -15 -5 0 -10 -11 -10 -25 0 -14 5 -25 10 -25 6 0 10 7 10 15 0 9 9 15 21
15 11 0 27 6 35 14 16 16 19 86 4 86 -5 0 -10 -5 -10 -11z"/>
<path d="M7520 1485 c0 -16 -6 -25 -15 -25 -8 0 -15 -4 -15 -10 0 -5 11 -10
25 -10 22 0 25 4 25 35 0 19 -4 35 -10 35 -5 0 -10 -11 -10 -25z"/>
<path d="M15940 1500 c0 -5 -7 -10 -15 -10 -8 0 -15 -7 -15 -15 0 -8 -4 -15
-10 -15 -5 0 -10 -4 -10 -10 0 -5 16 -10 35 -10 33 0 35 2 35 35 0 19 -4 35
-10 35 -5 0 -10 -4 -10 -10z"/>
<path d="M2340 1475 c0 -8 7 -15 15 -15 8 0 15 7 15 15 0 8 -7 15 -15 15 -8 0
-15 -7 -15 -15z"/>
<path d="M2730 1475 c0 -8 7 -15 15 -15 8 0 15 7 15 15 0 8 -7 15 -15 15 -8 0
-15 -7 -15 -15z"/>
<path d="M6350 1475 c0 -8 -7 -15 -15 -15 -13 0 -15 -29 -15 -205 0 -176 2
-205 15 -205 13 0 15 -26 15 -170 0 -163 1 -170 20 -170 19 0 20 7 20 170 0
163 -1 170 -20 170 -19 0 -20 7 -20 205 0 130 4 205 10 205 6 0 10 7 10 15 0
8 -4 15 -10 15 -5 0 -10 -7 -10 -15z"/>
<path d="M6540 1465 c0 -16 6 -25 15 -25 9 0 15 9 15 25 0 16 -6 25 -15 25 -9
0 -15 -9 -15 -25z"/>
<path d="M6760 1475 c0 -8 7 -15 15 -15 8 0 15 7 15 15 0 8 -7 15 -15 15 -8 0
-15 -7 -15 -15z"/>
<path d="M6960 1256 c0 -178 3 -236 13 -240 10 -5 10 -7 0 -12 -20 -9 -18
-260 1 -280 8 -8 17 -14 20 -14 3 0 6 70 6 155 0 97 -4 155 -10 155 -6 0 -10
80 -10 220 0 140 4 220 10 220 6 0 10 7 10 15 0 8 -9 15 -20 15 -19 0 -20 -7
-20 -234z"/>
<path d="M14030 1475 c0 -8 -4 -15 -10 -15 -6 0 -10 -72 -10 -195 0 -123 4
-195 10 -195 6 0 10 72 10 195 0 167 2 195 15 195 8 0 15 7 15 15 0 8 -7 15
-15 15 -8 0 -15 -7 -15 -15z"/>
<path d="M14230 1475 c0 -8 5 -15 10 -15 6 0 10 7 10 15 0 8 -4 15 -10 15 -5
0 -10 -7 -10 -15z"/>
<path d="M14450 1475 c0 -8 -7 -15 -15 -15 -13 0 -15 -29 -15 -205 0 -176 2
-205 15 -205 13 0 15 29 15 205 0 130 4 205 10 205 6 0 10 7 10 15 0 8 -4 15
-10 15 -5 0 -10 -7 -10 -15z"/>
<path d="M14640 1475 c0 -8 7 -15 15 -15 8 0 15 7 15 15 0 8 -7 15 -15 15 -8
0 -15 -7 -15 -15z"/>
<path d="M16570 1450 c0 -5 7 -10 15 -10 8 0 15 5 15 10 0 6 -7 10 -15 10 -8
0 -15 -4 -15 -10z"/>
<path d="M3320 1425 c0 -8 -7 -15 -15 -15 -8 0 -15 -9 -15 -20 0 -11 7 -20 15
-20 8 0 15 5 15 10 0 6 5 10 10 10 6 0 10 -11 10 -25 0 -16 6 -25 15 -25 8 0
15 5 15 11 0 14 25 39 39 39 6 0 11 -21 11 -50 0 -27 5 -50 10 -50 6 0 10 27
10 60 0 33 -4 60 -10 60 -5 0 -10 7 -10 15 0 11 -12 15 -50 15 -38 0 -50 -4
-50 -15z"/>
<path d="M3560 1425 c0 -9 -9 -15 -25 -15 -14 0 -25 -4 -25 -10 0 -5 11 -10
25 -10 14 0 25 -4 25 -10 0 -5 7 -10 15 -10 11 0 15 -11 15 -40 0 -22 5 -40
10 -40 6 0 10 23 10 50 0 38 4 50 15 50 11 0 15 -12 15 -50 0 -27 5 -50 10
-50 6 0 10 27 10 60 0 33 -4 60 -10 60 -5 0 -10 7 -10 15 0 11 -11 15 -40 15
-29 0 -40 -4 -40 -15z"/>
<path d="M3760 1425 c0 -8 -7 -15 -15 -15 -11 0 -15 -12 -15 -45 0 -33 4 -45
15 -45 10 0 15 11 15 35 0 19 5 35 10 35 6 0 10 -22 10 -50 0 -47 2 -50 25
-50 23 0 25 3 25 50 0 38 4 50 15 50 11 0 15 -12 15 -50 0 -27 5 -50 10 -50 6
0 10 32 10 75 l0 75 -60 0 c-47 0 -60 -3 -60 -15z"/>
<path d="M3980 1415 c0 -16 -6 -25 -15 -25 -10 0 -15 -11 -15 -35 0 -24 5 -35
15 -35 8 0 15 -7 15 -15 0 -9 9 -15 25 -15 24 0 25 2 25 75 0 73 -1 75 -25 75
-20 0 -25 -5 -25 -25z"/>
<path d="M4100 1415 c0 -14 5 -25 10 -25 6 0 10 11 10 25 0 14 -4 25 -10 25
-5 0 -10 -11 -10 -25z"/>
<path d="M4200 1415 c0 -20 5 -25 25 -25 20 0 25 5 25 25 0 20 -5 25 -25 25
-20 0 -25 -5 -25 -25z"/>
<path d="M4300 1415 c0 -18 5 -25 20 -25 15 0 20 7 20 25 0 18 -5 25 -20 25
-15 0 -20 -7 -20 -25z"/>
<path d="M4390 1415 c0 -20 5 -25 25 -25 20 0 25 5 25 25 0 20 -5 25 -25 25
-20 0 -25 -5 -25 -25z"/>
<path d="M4490 1415 c0 -20 5 -25 25 -25 20 0 25 5 25 25 0 20 -5 25 -25 25
-20 0 -25 -5 -25 -25z"/>
<path d="M4590 1415 c0 -22 4 -25 35 -25 31 0 35 3 35 25 0 22 -4 25 -35 25
-31 0 -35 -3 -35 -25z"/>
<path d="M10890 1280 c0 -123 1 -130 20 -130 15 0 20 7 20 25 0 16 6 25 15 25
8 0 15 9 15 20 0 11 5 20 10 20 6 0 10 -16 10 -35 0 -31 3 -35 25 -35 l25 0 0
100 c0 60 -4 100 -10 100 -5 0 -10 -7 -10 -15 0 -8 -5 -15 -11 -15 -14 0 -39
-25 -39 -39 0 -6 -11 -11 -25 -11 -23 0 -25 3 -25 50 0 28 5 50 10 50 6 0 10
5 10 10 0 6 -9 10 -20 10 -19 0 -20 -7 -20 -130z"/>
<path d="M10980 1400 c0 -5 11 -10 25 -10 14 0 25 5 25 10 0 6 -11 10 -25 10
-14 0 -25 -4 -25 -10z"/>
<path d="M11130 1280 c0 -80 4 -130 10 -130 6 0 10 5 10 10 0 6 7 10 15 10 11
0 15 12 15 50 0 38 -4 50 -15 50 -12 0 -15 13 -15 60 0 47 3 60 15 60 8 0 15
5 15 10 0 6 -11 10 -25 10 l-25 0 0 -130z"/>
<path d="M11200 1400 c0 -5 7 -10 15 -10 9 0 15 -9 15 -25 0 -16 -6 -25 -15
-25 -12 0 -15 -16 -15 -85 l0 -85 40 0 40 0 0 120 0 120 -40 0 c-22 0 -40 -4
-40 -10z"/>
<path d="M11370 1390 c0 -23 16 -26 36 -6 20 20 18 26 -11 26 -18 0 -25 -5
-25 -20z"/>
<path d="M11470 1400 c0 -5 7 -10 15 -10 8 0 15 5 15 10 0 6 -7 10 -15 10 -8
0 -15 -4 -15 -10z"/>
<path d="M11640 1400 c0 -5 11 -10 25 -10 14 0 25 5 25 10 0 6 -11 10 -25 10
-14 0 -25 -4 -25 -10z"/>
<path d="M11740 1400 c0 -5 5 -10 10 -10 6 0 10 5 10 10 0 6 -4 10 -10 10 -5
0 -10 -4 -10 -10z"/>
<path d="M18570 1400 c0 -5 11 -10 25 -10 14 0 25 5 25 10 0 6 -11 10 -25 10
-14 0 -25 -4 -25 -10z"/>
<path d="M18650 1390 c0 -11 5 -20 10 -20 6 0 10 -7 10 -15 0 -8 -4 -15 -10
-15 -6 0 -10 -35 -10 -85 0 -84 0 -85 25 -85 l25 0 0 100 c0 82 -3 100 -15
100 -8 0 -15 5 -15 10 0 6 7 10 15 10 8 0 15 5 15 10 0 6 -11 10 -25 10 -18 0
-25 -5 -25 -20z"/>
<path d="M18820 1280 l0 -130 25 0 25 0 0 130 0 130 -25 0 -25 0 0 -130z"/>
<path d="M18920 1400 c0 -5 5 -10 10 -10 6 0 10 5 10 10 0 6 -4 10 -10 10 -5
0 -10 -4 -10 -10z"/>
<path d="M19060 1315 c0 -57 -4 -95 -10 -95 -15 0 -12 -39 4 -56 8 -8 17 -14
21 -14 14 0 35 30 35 49 0 12 6 21 15 21 9 0 15 -9 15 -25 0 -18 5 -25 20 -25
18 0 20 7 20 75 0 60 3 75 15 75 9 0 15 9 15 25 0 20 -5 25 -25 25 -20 0 -25
-5 -25 -25 0 -14 -4 -25 -10 -25 -5 0 -10 -7 -10 -15 0 -9 -9 -15 -25 -15 -23
0 -25 3 -25 50 0 28 5 50 10 50 6 0 10 5 10 10 0 6 -11 10 -25 10 -25 0 -25 0
-25 -95z"/>
<path d="M19140 1400 c0 -5 9 -10 20 -10 11 0 20 5 20 10 0 6 -9 10 -20 10
-11 0 -20 -4 -20 -10z"/>
<path d="M19330 1315 c0 -57 -4 -95 -10 -95 -16 0 -11 -40 7 -58 12 -12 18
-13 21 -4 2 6 10 12 18 12 8 0 14 5 14 11 0 14 25 39 39 39 6 0 11 -11 11 -25
0 -14 5 -25 10 -25 6 0 10 40 10 100 0 60 -4 100 -10 100 -5 0 -10 -11 -10
-25 0 -16 -6 -25 -15 -25 -8 0 -15 -7 -15 -15 0 -9 -9 -15 -25 -15 -23 0 -25
3 -25 50 0 38 4 50 15 50 8 0 15 5 15 10 0 6 -11 10 -25 10 -25 0 -25 0 -25
-95z"/>
<path d="M19430 1400 c0 -5 5 -10 10 -10 6 0 10 5 10 10 0 6 -4 10 -10 10 -5
0 -10 -4 -10 -10z"/>
<path d="M7660 1330 l0 -60 195 0 195 0 0 60 0 60 -195 0 -195 0 0 -60z"/>
<path d="M15350 1330 l0 -60 195 0 195 0 0 60 0 60 -195 0 -195 0 0 -60z"/>
<path d="M2730 1355 c0 -8 7 -15 15 -15 8 0 15 7 15 15 0 8 -7 15 -15 15 -8 0
-15 -7 -15 -15z"/>
<path d="M2930 1355 c0 -8 5 -15 10 -15 6 0 10 7 10 15 0 8 -4 15 -10 15 -5 0
-10 -7 -10 -15z"/>
<path d="M7540 1359 c0 -14 -25 -39 -39 -39 -6 0 -11 -11 -11 -25 0 -20 5 -25
25 -25 20 0 25 5 25 25 0 16 6 25 15 25 9 0 15 9 15 25 0 16 -6 25 -15 25 -8
0 -15 -5 -15 -11z"/>
<path d="M8250 1359 c0 -14 -25 -39 -39 -39 -6 0 -11 -11 -11 -25 0 -22 4 -25
35 -25 l35 0 0 50 c0 28 -4 50 -10 50 -5 0 -10 -5 -10 -11z"/>
<path d="M11470 1345 c0 -14 -4 -25 -10 -25 -5 0 -10 -7 -10 -15 0 -8 -5 -15
-11 -15 -14 0 -39 -25 -39 -39 0 -6 -7 -11 -15 -11 -10 0 -15 -11 -15 -35 l0
-35 65 0 65 0 0 100 c0 82 -3 100 -15 100 -9 0 -15 -9 -15 -25z"/>
<path d="M11740 1345 c0 -14 -4 -25 -10 -25 -5 0 -10 -11 -10 -25 0 -14 5 -25
10 -25 6 0 10 -22 10 -50 0 -27 5 -50 10 -50 6 0 10 40 10 100 0 60 -4 100
-10 100 -5 0 -10 -11 -10 -25z"/>
<path d="M15210 1345 c0 -20 -5 -25 -25 -25 -20 0 -25 -5 -25 -25 0 -21 5 -25
31 -25 40 0 59 20 59 64 0 29 -4 36 -20 36 -15 0 -20 -7 -20 -25z"/>
<path d="M15940 1355 c0 -8 -5 -15 -11 -15 -17 0 -39 -27 -39 -49 0 -25 34
-29 56 -7 16 16 19 86 4 86 -5 0 -10 -7 -10 -15z"/>
<path d="M16570 1355 c0 -8 7 -15 15 -15 8 0 15 7 15 15 0 8 -7 15 -15 15 -8
0 -15 -7 -15 -15z"/>
<path d="M4100 1315 c0 -14 5 -25 10 -25 6 0 10 11 10 25 0 14 -4 25 -10 25
-5 0 -10 -11 -10 -25z"/>
<path d="M4200 1315 c0 -20 5 -25 25 -25 20 0 25 5 25 25 0 20 -5 25 -25 25
-20 0 -25 -5 -25 -25z"/>
<path d="M4300 1315 c0 -18 5 -25 20 -25 15 0 20 7 20 25 0 18 -5 25 -20 25
-15 0 -20 -7 -20 -25z"/>
<path d="M4390 1330 c0 -5 7 -10 15 -10 8 0 15 -7 15 -15 0 -8 5 -15 10 -15 6
0 10 11 10 25 0 20 -5 25 -25 25 -14 0 -25 -4 -25 -10z"/>
<path d="M4520 1315 c0 -14 5 -25 10 -25 6 0 10 11 10 25 0 14 -4 25 -10 25
-5 0 -10 -11 -10 -25z"/>
<path d="M4610 1315 c0 -20 5 -25 25 -25 20 0 25 5 25 25 0 20 -5 25 -25 25
-20 0 -25 -5 -25 -25z"/>
<path d="M4950 1230 l0 -110 75 0 75 0 0 110 0 110 -75 0 -75 0 0 -110z"/>
<path d="M5490 1220 c0 -100 3 -120 15 -120 8 0 15 5 15 10 0 6 27 10 60 10
l60 0 0 110 0 110 -75 0 -75 0 0 -120z"/>
<path d="M12640 1220 c0 -100 3 -120 15 -120 8 0 15 5 15 10 0 6 20 10 45 10
l45 0 0 110 0 110 -60 0 -60 0 0 -120z m80 15 c0 -24 -5 -35 -15 -35 -10 0
-15 11 -15 35 0 24 5 35 15 35 10 0 15 -11 15 -35z"/>
<path d="M13180 1230 l0 -110 75 0 75 0 0 110 0 110 -75 0 -75 0 0 -110z"/>
<path d="M18920 1330 c0 -5 -7 -10 -15 -10 -11 0 -15 -12 -15 -50 0 -38 4 -50
15 -50 9 0 15 -9 15 -25 0 -14 5 -25 10 -25 6 0 10 35 10 85 0 50 -4 85 -10
85 -5 0 -10 -4 -10 -10z"/>
<path d="M3340 1305 c0 -8 7 -15 15 -15 8 0 15 7 15 15 0 8 -7 15 -15 15 -8 0
-15 -7 -15 -15z"/>
<path d="M16570 1305 c0 -8 7 -15 15 -15 8 0 15 7 15 15 0 8 -7 15 -15 15 -8
0 -15 -7 -15 -15z"/>
<path d="M16650 1280 c0 -5 9 -10 20 -10 11 0 20 5 20 10 0 6 -9 10 -20 10
-11 0 -20 -4 -20 -10z"/>
<path d="M16960 1280 c0 -5 7 -10 15 -10 8 0 15 5 15 10 0 6 -7 10 -15 10 -8
0 -15 -4 -15 -10z"/>
<path d="M8640 1255 c0 -8 5 -15 10 -15 6 0 10 7 10 15 0 8 -4 15 -10 15 -5 0
-10 -7 -10 -15z"/>
<path d="M11670 1255 c0 -8 -7 -15 -15 -15 -10 0 -15 -11 -15 -35 0 -31 3 -35
25 -35 22 0 25 4 25 35 0 24 5 35 15 35 8 0 15 7 15 15 0 9 -9 15 -25 15 -16
0 -25 -6 -25 -15z"/>
<path d="M16570 1255 c0 -8 7 -15 15 -15 8 0 15 7 15 15 0 8 -7 15 -15 15 -8
0 -15 -7 -15 -15z"/>
<path d="M18570 1220 c0 -47 2 -50 25 -50 23 0 25 3 25 50 0 47 -2 50 -25 50
-23 0 -25 -3 -25 -50z"/>
<path d="M2730 1230 c0 -5 7 -10 15 -10 8 0 15 5 15 10 0 6 -7 10 -15 10 -8 0
-15 -4 -15 -10z"/>
<path d="M4100 1220 c0 -11 5 -20 10 -20 6 0 10 9 10 20 0 11 -4 20 -10 20 -5
0 -10 -9 -10 -20z"/>
<path d="M4200 1220 c0 -15 7 -20 25 -20 18 0 25 5 25 20 0 15 -7 20 -25 20
-18 0 -25 -5 -25 -20z"/>
<path d="M4300 1220 c0 -13 7 -20 20 -20 13 0 20 7 20 20 0 13 -7 20 -20 20
-13 0 -20 -7 -20 -20z"/>
<path d="M4390 1230 c0 -5 7 -10 15 -10 8 0 15 -4 15 -10 0 -5 5 -10 10 -10 6
0 10 9 10 20 0 15 -7 20 -25 20 -14 0 -25 -4 -25 -10z"/>
<path d="M4490 1230 c0 -5 7 -10 15 -10 8 0 15 -4 15 -10 0 -5 5 -10 10 -10 6
0 10 9 10 20 0 15 -7 20 -25 20 -14 0 -25 -4 -25 -10z"/>
<path d="M4610 1220 c0 -15 7 -20 25 -20 18 0 25 5 25 20 0 15 -7 20 -25 20
-18 0 -25 -5 -25 -20z"/>
<path d="M3340 1210 c0 -5 -11 -10 -25 -10 -20 0 -25 -5 -25 -25 0 -16 6 -25
15 -25 8 0 15 5 15 10 0 6 5 10 10 10 6 0 10 -22 10 -50 0 -38 4 -50 15 -50
11 0 15 11 15 36 0 35 18 64 39 64 6 0 11 -21 11 -50 0 -27 5 -50 10 -50 6 0
10 28 10 65 0 63 -1 65 -25 65 -14 0 -25 5 -25 10 0 6 -11 10 -25 10 -14 0
-25 -4 -25 -10z"/>
<path d="M3560 1210 c0 -5 -11 -10 -25 -10 -16 0 -25 -6 -25 -15 0 -9 9 -15
25 -15 14 0 25 -4 25 -10 0 -5 7 -10 15 -10 11 0 15 -11 15 -40 0 -22 5 -40
10 -40 6 0 10 23 10 50 0 38 4 50 15 50 11 0 15 -12 15 -50 0 -27 5 -50 10
-50 6 0 10 28 10 65 0 63 -1 65 -25 65 -14 0 -25 5 -25 10 0 6 -11 10 -25 10
-14 0 -25 -4 -25 -10z"/>
<path d="M3780 1210 c0 -5 -11 -10 -25 -10 -24 0 -25 -2 -25 -65 0 -51 3 -65
15 -65 11 0 15 11 15 40 0 22 5 40 10 40 6 0 10 -18 10 -40 0 -29 4 -40 15
-40 8 0 15 -4 15 -10 0 -5 5 -10 10 -10 6 0 10 27 10 60 0 47 3 60 15 60 11 0
15 -12 15 -50 0 -27 5 -50 10 -50 6 0 10 28 10 65 0 63 -1 65 -25 65 -14 0
-25 5 -25 10 0 6 -11 10 -25 10 -14 0 -25 -4 -25 -10z"/>
<path d="M3980 1195 c0 -16 -6 -25 -15 -25 -11 0 -15 -12 -15 -50 0 -47 2 -50
25 -50 14 0 25 -4 25 -10 0 -5 7 -10 15 -10 12 0 15 16 15 85 0 84 0 85 -25
85 -20 0 -25 -5 -25 -25z"/>
<path d="M7533 1205 c-7 -8 -13 -19 -13 -25 0 -5 -5 -10 -11 -10 -14 0 -39
-25 -39 -39 0 -6 16 -11 35 -11 24 0 35 5 35 15 0 8 7 15 15 15 10 0 15 11 15
35 0 37 -15 45 -37 20z"/>
<path d="M8243 1205 c-7 -8 -13 -23 -13 -35 0 -11 -7 -20 -15 -20 -9 0 -15 -9
-15 -25 0 -16 6 -25 15 -25 8 0 15 5 15 10 0 6 9 10 20 10 17 0 20 7 20 50 0
52 -6 59 -27 35z"/>
<path d="M8640 1210 c0 -5 5 -10 10 -10 6 0 10 5 10 10 0 6 -4 10 -10 10 -5 0
-10 -4 -10 -10z"/>
<path d="M8690 1210 c0 -5 5 -10 10 -10 6 0 10 5 10 10 0 6 -4 10 -10 10 -5 0
-10 -4 -10 -10z"/>
<path d="M15223 1205 c-7 -8 -13 -19 -13 -25 0 -5 -5 -10 -11 -10 -17 0 -39
-27 -39 -49 0 -12 5 -21 10 -21 6 0 10 5 10 10 0 6 16 10 35 10 l35 0 0 50 c0
52 -6 59 -27 35z"/>
<path d="M15940 1210 c0 -5 -7 -10 -15 -10 -9 0 -15 -9 -15 -25 0 -20 -5 -25
-25 -25 -16 0 -25 -6 -25 -15 0 -11 12 -15 50 -15 l50 0 0 50 c0 28 -4 50 -10
50 -5 0 -10 -4 -10 -10z"/>
<path d="M16570 1210 c0 -5 7 -10 15 -10 8 0 15 5 15 10 0 6 -7 10 -15 10 -8
0 -15 -4 -15 -10z"/>
<path d="M1433 1155 c-7 -8 -13 -19 -13 -25 0 -5 -18 -10 -40 -10 -39 0 -40
-1 -40 -35 l0 -35 60 0 60 0 0 60 c0 61 -5 70 -27 45z"/>
<path d="M7660 1095 l0 -75 195 0 195 0 0 75 0 75 -195 0 -195 0 0 -75z"/>
<path d="M15350 1095 l0 -75 195 0 195 0 0 75 0 75 -195 0 -195 0 0 -75z"/>
<path d="M16570 1160 c0 -5 7 -10 15 -10 8 0 15 5 15 10 0 6 -7 10 -15 10 -8
0 -15 -4 -15 -10z"/>
<path d="M1120 1100 c0 -47 2 -50 25 -50 14 0 25 5 25 10 0 14 28 12 32 -2 3
-9 9 -8 21 4 18 18 23 58 7 58 -5 0 -10 7 -10 15 0 8 -4 15 -10 15 -5 0 -10
-7 -10 -15 0 -9 -9 -15 -25 -15 -16 0 -25 6 -25 15 0 8 -7 15 -15 15 -11 0
-15 -12 -15 -50z"/>
<path d="M1590 1100 l0 -50 45 0 45 0 0 50 0 50 -45 0 -45 0 0 -50z"/>
<path d="M1830 1135 c0 -8 -4 -15 -10 -15 -15 0 -12 -39 4 -56 9 -8 34 -14 60
-14 l46 0 0 50 0 50 -50 0 c-38 0 -50 -4 -50 -15z"/>
<path d="M2640 1135 c0 -12 16 -15 85 -15 69 0 85 3 85 15 0 12 -16 15 -85 15
-69 0 -85 -3 -85 -15z"/>
<path d="M4100 1125 c0 -20 5 -25 25 -25 20 0 25 5 25 25 0 20 -5 25 -25 25
-20 0 -25 -5 -25 -25z"/>
<path d="M4200 1125 c0 -20 5 -25 25 -25 20 0 25 5 25 25 0 20 -5 25 -25 25
-20 0 -25 -5 -25 -25z"/>
<path d="M4300 1125 c0 -18 5 -25 20 -25 15 0 20 7 20 25 0 18 -5 25 -20 25
-15 0 -20 -7 -20 -25z"/>
<path d="M4390 1125 c0 -20 5 -25 25 -25 20 0 25 5 25 25 0 20 -5 25 -25 25
-20 0 -25 -5 -25 -25z"/>
<path d="M4490 1125 c0 -22 4 -25 35 -25 31 0 35 3 35 25 0 22 -4 25 -35 25
-31 0 -35 -3 -35 -25z"/>
<path d="M4590 1125 c0 -22 4 -25 35 -25 31 0 35 3 35 25 0 22 -4 25 -35 25
-31 0 -35 -3 -35 -25z"/>
<path d="M9093 1105 c-7 -8 -13 -30 -13 -49 0 -19 6 -37 13 -40 10 -5 10 -7 0
-12 -8 -3 -13 -25 -13 -55 l0 -49 50 0 50 0 0 50 c0 38 -4 50 -15 50 -8 0 -15
5 -15 10 0 6 7 10 15 10 11 0 15 11 15 40 0 29 -4 40 -15 40 -8 0 -15 5 -15
10 0 15 -43 11 -57 -5z"/>
<path d="M9200 1010 l0 -110 35 0 35 0 0 49 c0 30 -5 52 -12 55 -10 5 -10 7 0
12 17 8 15 72 -2 90 -8 8 -24 14 -35 14 -20 0 -21 -5 -21 -110z"/>
<path d="M9363 1105 c-7 -8 -13 -30 -13 -49 0 -19 6 -37 13 -40 10 -5 10 -7 0
-12 -8 -3 -13 -25 -13 -55 l0 -49 35 0 c24 0 35 5 35 15 0 8 7 15 15 15 10 0
15 11 15 35 0 31 -3 35 -25 35 -14 0 -25 5 -25 10 0 6 11 10 25 10 23 0 25 4
25 40 0 29 -4 40 -15 40 -8 0 -15 5 -15 10 0 15 -43 11 -57 -5z"/>
<path d="M9470 1070 c0 -47 2 -50 25 -50 16 0 25 6 25 15 0 8 5 15 10 15 15 0
12 39 -4 56 -8 8 -24 14 -35 14 -18 0 -21 -6 -21 -50z"/>
<path d="M9633 1105 c-7 -8 -13 -30 -13 -50 0 -33 2 -35 35 -35 l35 0 0 50 c0
45 -2 50 -22 50 -13 -1 -29 -7 -35 -15z"/>
<path d="M9740 1070 c0 -47 2 -50 25 -50 23 0 25 3 25 50 0 47 -2 50 -25 50
-23 0 -25 -3 -25 -50z"/>
<path d="M16783 1105 c-7 -8 -13 -30 -13 -49 0 -19 6 -37 13 -40 10 -5 10 -7
0 -12 -8 -3 -13 -25 -13 -55 l0 -49 35 0 c24 0 35 5 35 15 0 9 9 15 25 15 16
0 25 -6 25 -15 0 -9 9 -15 25 -15 20 0 25 5 25 25 0 14 5 25 10 25 15 0 12 19
-4 36 -17 16 -56 19 -56 4 0 -5 -11 -10 -25 -10 -22 0 -25 4 -25 35 0 31 3 35
25 35 16 0 25 -6 25 -15 0 -9 9 -15 25 -15 23 0 25 3 25 50 0 47 -2 50 -25 50
-14 0 -25 -4 -25 -10 0 -5 -11 -10 -25 -10 -14 0 -25 5 -25 10 0 15 -43 11
-57 -5z"/>
<path d="M17040 1010 l0 -110 85 0 85 0 0 50 c0 38 -4 50 -15 50 -8 0 -15 5
-15 10 0 6 7 10 15 10 11 0 15 12 15 50 l0 50 -39 0 c-22 0 -42 -6 -45 -12 -5
-10 -7 -10 -12 0 -3 6 -21 12 -40 12 l-34 0 0 -110z m90 0 c0 -5 -9 -10 -20
-10 -11 0 -20 5 -20 10 0 6 9 10 20 10 11 0 20 -4 20 -10z"/>
<path d="M17300 1010 l0 -110 25 0 c16 0 25 6 25 15 0 8 7 15 15 15 10 0 15
11 15 35 0 24 -5 35 -15 35 -8 0 -15 5 -15 10 0 6 7 10 15 10 11 0 15 11 15
40 0 29 -4 40 -15 40 -8 0 -15 5 -15 10 0 6 -11 10 -25 10 l-25 0 0 -110z"/>
<path d="M17400 1070 c0 -38 4 -50 15 -50 8 0 15 -4 15 -10 0 -5 -7 -10 -15
-10 -11 0 -15 -12 -15 -50 l0 -50 40 0 40 0 0 50 c0 38 -4 50 -15 50 -8 0 -15
5 -15 10 0 6 7 10 15 10 11 0 15 12 15 50 l0 50 -40 0 -40 0 0 -50z"/>
<path d="M6520 1060 c0 -5 -7 -10 -15 -10 -13 0 -15 -26 -15 -170 l0 -170 25
0 25 0 0 180 c0 113 -4 180 -10 180 -5 0 -10 -4 -10 -10z"/>
<path d="M8640 1060 c0 -5 5 -10 10 -10 6 0 10 5 10 10 0 6 -4 10 -10 10 -5 0
-10 -4 -10 -10z"/>
<path d="M8690 1060 c0 -5 5 -10 10 -10 6 0 10 5 10 10 0 6 -4 10 -10 10 -5 0
-10 -4 -10 -10z"/>
<path d="M10890 1035 c0 -34 -1 -35 -40 -35 -36 0 -40 -2 -40 -25 0 -22 4 -25
40 -25 l40 0 0 -60 0 -60 70 0 70 0 0 95 c0 57 -4 95 -10 95 -5 0 -10 -4 -10
-10 0 -5 -5 -10 -11 -10 -14 0 -39 -25 -39 -39 0 -6 -7 -11 -15 -11 -12 0 -15
13 -15 60 0 53 -2 60 -20 60 -16 0 -20 -7 -20 -35z"/>
<path d="M10980 1060 c0 -5 7 -10 15 -10 8 0 15 5 15 10 0 6 -7 10 -15 10 -8
0 -15 -4 -15 -10z"/>
<path d="M11130 950 l0 -120 25 0 c23 0 25 3 25 50 0 38 -4 50 -15 50 -12 0
-15 13 -15 60 0 47 3 60 15 60 8 0 15 5 15 10 0 6 -11 10 -25 10 l-25 0 0
-120z"/>
<path d="M11200 1060 c0 -5 7 -10 15 -10 9 0 15 -9 15 -25 0 -16 -6 -25 -15
-25 -12 0 -15 -16 -15 -85 l0 -85 40 0 40 0 0 120 0 120 -40 0 c-22 0 -40 -4
-40 -10z"/>
<path d="M11370 1010 c0 -47 3 -60 15 -60 11 0 15 12 15 50 0 28 5 50 10 50 6
0 10 5 10 10 0 6 -11 10 -25 10 -24 0 -25 -3 -25 -60z"/>
<path d="M11470 1060 c0 -5 7 -10 15 -10 8 0 15 5 15 10 0 6 -7 10 -15 10 -8
0 -15 -4 -15 -10z"/>
<path d="M11640 1060 c0 -5 7 -10 15 -10 8 0 15 5 15 10 0 6 -7 10 -15 10 -8
0 -15 -4 -15 -10z"/>
<path d="M11740 1035 c0 -19 -4 -35 -10 -35 -5 0 -10 -16 -10 -35 0 -31 -3
-35 -25 -35 -16 0 -25 -6 -25 -15 0 -8 -7 -15 -15 -15 -10 0 -15 -11 -15 -35
l0 -35 60 0 60 0 0 120 c0 73 -4 120 -10 120 -5 0 -10 -16 -10 -35z"/>
<path d="M14193 1055 c-20 -22 -18 -311 1 -331 33 -32 36 -16 36 166 0 184 -4
203 -37 165z"/>
<path d="M16520 1060 c0 -5 7 -10 15 -10 8 0 15 5 15 10 0 6 -7 10 -15 10 -8
0 -15 -4 -15 -10z"/>
<path d="M16570 1060 c0 -5 7 -10 15 -10 8 0 15 5 15 10 0 6 -7 10 -15 10 -8
0 -15 -4 -15 -10z"/>
<path d="M18570 1035 c0 -24 5 -35 15 -35 10 0 15 11 15 35 0 24 -5 35 -15 35
-10 0 -15 -11 -15 -35z"/>
<path d="M18650 950 l0 -120 25 0 25 0 0 120 0 120 -25 0 -25 0 0 -120z"/>
<path d="M18820 950 l0 -120 25 0 c20 0 25 5 25 25 0 14 5 25 10 25 6 0 10
-11 10 -25 0 -20 5 -25 25 -25 25 0 25 1 25 85 0 50 -4 85 -10 85 -5 0 -10 -4
-10 -10 0 -5 -7 -10 -15 -10 -9 0 -15 -9 -15 -25 0 -14 -4 -25 -10 -25 -6 0
-10 30 -10 70 0 68 -1 70 -25 70 l-25 0 0 -120z"/>
<path d="M19060 975 c0 -57 -4 -95 -10 -95 -5 0 -10 -11 -10 -25 0 -24 2 -25
70 -25 l70 0 0 60 c0 47 3 60 15 60 10 0 15 11 15 35 0 31 -3 35 -25 35 -18 0
-25 -5 -25 -20 0 -11 -4 -20 -10 -20 -5 0 -10 -7 -10 -15 0 -8 -7 -15 -15 -15
-8 0 -15 -4 -15 -10 0 -5 -4 -10 -10 -10 -6 0 -10 27 -10 60 0 33 4 60 10 60
6 0 10 5 10 10 0 6 -11 10 -25 10 -25 0 -25 0 -25 -95z"/>
<path d="M19160 1060 c0 -5 5 -10 10 -10 6 0 10 5 10 10 0 6 -4 10 -10 10 -5
0 -10 -4 -10 -10z"/>
<path d="M19330 975 c0 -57 -4 -95 -10 -95 -5 0 -10 -11 -10 -25 0 -24 2 -25
70 -25 l70 0 0 95 c0 57 -4 95 -10 95 -5 0 -10 -4 -10 -10 0 -5 -7 -10 -15
-10 -9 0 -15 -9 -15 -25 0 -20 -5 -25 -25 -25 -23 0 -25 3 -25 50 0 38 4 50
15 50 8 0 15 5 15 10 0 6 -11 10 -25 10 -25 0 -25 0 -25 -95z"/>
<path d="M19430 1060 c0 -5 5 -10 10 -10 6 0 10 5 10 10 0 6 -4 10 -10 10 -5
0 -10 -4 -10 -10z"/>
<path d="M2050 1035 c0 -9 9 -15 25 -15 16 0 25 6 25 15 0 9 -9 15 -25 15 -16
0 -25 -6 -25 -15z"/>
<path d="M2120 1035 c0 -8 7 -15 15 -15 8 0 15 7 15 15 0 8 -7 15 -15 15 -8 0
-15 -7 -15 -15z"/>
<path d="M4100 1025 c0 -20 5 -25 25 -25 20 0 25 5 25 25 0 20 -5 25 -25 25
-20 0 -25 -5 -25 -25z"/>
<path d="M4200 1025 c0 -14 5 -25 10 -25 6 0 10 5 10 10 0 6 7 10 15 10 8 0
15 7 15 15 0 9 -9 15 -25 15 -20 0 -25 -5 -25 -25z"/>
<path d="M4490 1035 c0 -8 7 -15 15 -15 8 0 15 -4 15 -10 0 -5 9 -10 20 -10
11 0 20 5 20 10 0 6 -4 10 -10 10 -5 0 -10 7 -10 15 0 9 -9 15 -25 15 -16 0
-25 -6 -25 -15z"/>
<path d="M4590 1025 c0 -22 4 -25 35 -25 31 0 35 3 35 25 0 22 -4 25 -35 25
-31 0 -35 -3 -35 -25z"/>
<path d="M6200 880 l0 -170 25 0 25 0 0 170 0 170 -25 0 -25 0 0 -170z"/>
<path d="M6660 880 l0 -170 25 0 25 0 0 170 0 170 -25 0 -25 0 0 -170z"/>
<path d="M6810 880 l0 -170 25 0 25 0 0 170 0 170 -25 0 -25 0 0 -170z"/>
<path d="M7540 1039 c0 -11 -25 -39 -35 -39 -10 0 -35 -28 -35 -39 0 -6 16
-11 35 -11 31 0 35 3 35 25 0 16 6 25 15 25 9 0 15 9 15 25 0 16 -6 25 -15 25
-8 0 -15 -5 -15 -11z"/>
<path d="M8250 1039 c0 -11 -25 -39 -35 -39 -10 0 -35 -28 -35 -39 0 -6 20
-11 45 -11 l45 0 0 50 c0 28 -4 50 -10 50 -5 0 -10 -5 -10 -11z"/>
<path d="M14030 880 l0 -170 25 0 25 0 0 170 0 170 -25 0 -25 0 0 -170z"/>
<path d="M14330 894 c0 -121 3 -159 14 -170 32 -32 36 -16 36 156 l0 170 -25
0 -25 0 0 -156z"/>
<path d="M14500 880 l0 -170 25 0 25 0 0 170 0 170 -25 0 -25 0 0 -170z"/>
<path d="M15210 1035 c0 -8 -5 -15 -11 -15 -17 0 -39 -27 -39 -49 0 -17 6 -21
35 -21 24 0 35 5 35 15 0 8 5 15 10 15 6 0 10 16 10 35 0 28 -4 35 -20 35 -11
0 -20 -7 -20 -15z"/>
<path d="M15940 1035 c0 -8 -6 -15 -13 -15 -7 0 -19 -9 -27 -20 -8 -11 -20
-20 -27 -20 -7 0 -13 -7 -13 -15 0 -11 12 -15 50 -15 l50 0 0 50 c0 28 -4 50
-10 50 -5 0 -10 -7 -10 -15z"/>
<path d="M2730 1010 c0 -5 7 -10 15 -10 8 0 15 5 15 10 0 6 -7 10 -15 10 -8 0
-15 -4 -15 -10z"/>
<path d="M2830 1010 c0 -5 7 -10 15 -10 8 0 15 5 15 10 0 6 -7 10 -15 10 -8 0
-15 -4 -15 -10z"/>
<path d="M2930 1010 c0 -5 5 -10 10 -10 6 0 10 5 10 10 0 6 -4 10 -10 10 -5 0
-10 -4 -10 -10z"/>
<path d="M6050 865 c0 -157 4 -172 36 -141 11 11 14 47 14 155 l0 141 -25 0
-25 0 0 -155z"/>
<path d="M11470 1000 c0 -11 -4 -20 -10 -20 -5 0 -10 -7 -10 -15 0 -8 -7 -15
-15 -15 -8 0 -15 -4 -15 -10 0 -5 -11 -10 -25 -10 -23 0 -25 -3 -25 -50 l0
-50 65 0 65 0 0 95 c0 78 -3 95 -15 95 -8 0 -15 -9 -15 -20z"/>
<path d="M13890 865 c0 -97 4 -155 10 -155 6 0 10 5 10 10 0 6 7 10 15 10 13
0 15 22 15 135 0 113 -2 135 -15 135 -8 0 -15 5 -15 10 0 6 -4 10 -10 10 -6 0
-10 -58 -10 -155z"/>
<path d="M4780 990 c0 -5 11 -10 25 -10 14 0 25 5 25 10 0 6 -11 10 -25 10
-14 0 -25 -4 -25 -10z"/>
<path d="M8490 975 l0 -25 245 0 245 0 0 25 0 25 -245 0 -245 0 0 -25z"/>
<path d="M9470 950 c0 -47 2 -50 25 -50 16 0 25 6 25 15 0 8 5 15 10 15 6 0
10 16 10 35 0 33 -2 35 -35 35 l-35 0 0 -50z"/>
<path d="M9620 950 l0 -50 35 0 35 0 0 50 0 50 -35 0 -35 0 0 -50z"/>
<path d="M9740 990 c0 -5 -7 -10 -15 -10 -8 0 -15 -7 -15 -15 0 -8 7 -15 15
-15 9 0 15 -9 15 -25 0 -20 5 -25 25 -25 23 0 25 3 25 50 0 47 -2 50 -25 50
-14 0 -25 -4 -25 -10z"/>
<path d="M13720 855 l0 -145 25 0 25 0 0 145 0 145 -25 0 -25 0 0 -145z"/>
<path d="M14640 855 l0 -145 25 0 25 0 0 145 0 145 -25 0 -25 0 0 -145z"/>
<path d="M16230 975 l0 -25 210 0 c180 0 210 2 210 15 0 8 5 15 10 15 6 0 10
5 10 10 0 6 -80 10 -220 10 l-220 0 0 -25z"/>
<path d="M18530 990 c0 -5 -7 -10 -15 -10 -8 0 -15 -7 -15 -15 0 -9 9 -15 25
-15 20 0 25 5 25 25 0 14 -4 25 -10 25 -5 0 -10 -4 -10 -10z"/>
<path d="M2050 965 c0 -8 5 -15 10 -15 6 0 10 7 10 15 0 8 -4 15 -10 15 -5 0
-10 -7 -10 -15z"/>
<path d="M3290 955 c0 -16 6 -25 15 -25 9 0 15 9 15 25 0 16 -6 25 -15 25 -9
0 -15 -9 -15 -25z"/>
<path d="M3340 930 c0 -38 4 -50 15 -50 9 0 15 9 15 25 0 14 5 25 10 25 6 0
10 11 10 25 0 20 -5 25 -25 25 -23 0 -25 -3 -25 -50z"/>
<path d="M3420 930 c0 -27 5 -50 10 -50 6 0 10 23 10 50 0 28 -4 50 -10 50 -5
0 -10 -22 -10 -50z"/>
<path d="M3560 955 c0 -16 6 -25 15 -25 11 0 15 -12 15 -50 0 -27 5 -50 10
-50 6 0 10 32 10 75 0 73 -1 75 -25 75 -20 0 -25 -5 -25 -25z"/>
<path d="M3640 915 c0 -37 4 -65 10 -65 6 0 10 28 10 65 0 37 -4 65 -10 65 -6
0 -10 -28 -10 -65z"/>
<path d="M3760 965 c0 -8 -7 -15 -15 -15 -11 0 -15 -12 -15 -50 0 -38 4 -50
15 -50 11 0 15 11 15 40 0 22 5 40 10 40 6 0 10 -18 10 -40 0 -29 4 -40 15
-40 8 0 15 -4 15 -10 0 -5 5 -10 10 -10 6 0 10 23 10 50 0 38 4 50 15 50 11 0
15 -12 15 -50 0 -27 5 -50 10 -50 6 0 10 32 10 75 l0 75 -60 0 c-47 0 -60 -3
-60 -15z"/>
<path d="M3980 965 c0 -8 -7 -15 -15 -15 -11 0 -15 -12 -15 -50 0 -36 4 -50
14 -50 8 0 17 -6 20 -12 5 -10 7 -10 12 0 3 6 12 12 20 12 11 0 14 16 14 65 0
63 -1 65 -25 65 -16 0 -25 -6 -25 -15z"/>
<path d="M5220 855 l0 -125 65 0 c51 0 65 3 65 15 0 8 5 15 10 15 6 0 10 43
10 110 l0 110 -75 0 -75 0 0 -125z"/>
<path d="M5760 855 l0 -125 75 0 75 0 0 125 0 125 -75 0 -75 0 0 -125z"/>
<path d="M7130 965 c0 -8 -7 -15 -15 -15 -12 0 -15 -20 -15 -120 l0 -120 25 0
c14 0 25 5 25 10 0 6 7 10 15 10 12 0 15 19 15 110 0 91 -3 110 -15 110 -8 0
-15 7 -15 15 0 8 -4 15 -10 15 -5 0 -10 -7 -10 -15z"/>
<path d="M12910 855 l0 -125 25 0 c16 0 25 6 25 15 0 11 12 15 50 15 l50 0 0
110 0 110 -75 0 -75 0 0 -125z"/>
<path d="M13450 855 c0 -77 4 -125 10 -125 6 0 10 7 10 15 0 11 12 15 50 15
38 0 50 -4 50 -15 0 -8 5 -15 10 -15 6 0 10 48 10 125 l0 125 -70 0 -70 0 0
-125z"/>
<path d="M14790 845 l0 -135 25 0 25 0 0 135 0 135 -25 0 -25 0 0 -135z"/>
<path d="M17600 965 c0 -8 5 -15 10 -15 6 0 10 7 10 15 0 8 -4 15 -10 15 -5 0
-10 -7 -10 -15z"/>
<path d="M1590 925 c0 -14 5 -25 10 -25 6 0 10 7 10 15 0 8 7 15 15 15 8 0 15
5 15 10 0 6 -11 10 -25 10 -20 0 -25 -5 -25 -25z"/>
<path d="M1660 940 c0 -5 5 -10 10 -10 6 0 10 5 10 10 0 6 -4 10 -10 10 -5 0
-10 -4 -10 -10z"/>
<path d="M1843 935 c-16 -17 -17 -35 -3 -35 6 0 10 7 10 15 0 9 9 15 25 15 14
0 25 5 25 10 0 15 -43 11 -57 -5z"/>
<path d="M3510 940 c0 -5 7 -10 15 -10 8 0 15 5 15 10 0 6 -7 10 -15 10 -8 0
-15 -4 -15 -10z"/>
<path d="M4100 940 c0 -5 5 -10 10 -10 6 0 10 5 10 10 0 6 -4 10 -10 10 -5 0
-10 -4 -10 -10z"/>
<path d="M4610 925 c0 -20 5 -25 25 -25 20 0 25 5 25 25 0 20 -5 25 -25 25
-20 0 -25 -5 -25 -25z"/>
<path d="M4810 940 c0 -5 5 -10 10 -10 6 0 10 5 10 10 0 6 -4 10 -10 10 -5 0
-10 -4 -10 -10z"/>
<path d="M7690 940 c0 -5 -7 -10 -15 -10 -12 0 -15 -15 -15 -75 l0 -75 195 0
195 0 0 60 c0 47 3 60 15 60 8 0 15 7 15 15 0 8 -6 15 -14 15 -8 0 -17 6 -20
13 -5 10 -7 10 -12 0 -7 -16 -324 -19 -324 -3 0 6 -4 10 -10 10 -5 0 -10 -4
-10 -10z"/>
<path d="M18570 890 c0 -57 1 -60 25 -60 23 0 25 4 25 46 0 44 -16 74 -39 74
-7 0 -11 -24 -11 -60z"/>
<path d="M1440 890 l0 -40 -50 0 -50 0 0 -35 0 -35 60 0 60 0 0 75 c0 43 -4
75 -10 75 -5 0 -10 -18 -10 -40z"/>
<path d="M15350 855 l0 -75 195 0 195 0 0 75 0 75 -195 0 -195 0 0 -75z"/>
<path d="M710 840 c0 -57 -1 -60 -25 -60 l-25 0 0 -110 0 -110 35 0 35 0 0
170 c0 107 -4 170 -10 170 -6 0 -10 -27 -10 -60z"/>
<path d="M7270 805 c0 -95 0 -95 25 -95 25 0 25 1 25 81 0 56 -4 85 -14 95
-30 29 -36 15 -36 -81z"/>
<path d="M8243 885 c-7 -8 -13 -23 -13 -35 0 -11 -7 -20 -15 -20 -8 0 -15 -7
-15 -15 0 -8 -4 -15 -10 -15 -5 0 -10 -4 -10 -10 0 -5 20 -10 45 -10 l45 0 0
60 c0 61 -5 70 -27 45z"/>
<path d="M14960 805 c0 -78 3 -95 15 -95 12 0 15 17 15 95 0 78 -3 95 -15 95
-12 0 -15 -17 -15 -95z"/>
<path d="M15223 885 c-7 -8 -13 -19 -13 -25 0 -5 -5 -10 -11 -10 -17 0 -39
-27 -39 -49 0 -17 6 -21 31 -21 43 0 59 21 59 74 0 48 -6 55 -27 31z"/>
<path d="M950 795 c0 -50 -4 -85 -10 -85 -5 0 -10 -7 -10 -15 0 -8 -7 -15 -15
-15 -9 0 -15 -9 -15 -25 0 -14 -4 -25 -10 -25 -5 0 -10 -16 -10 -35 0 -33 2
-35 35 -35 24 0 35 5 35 15 0 8 7 15 15 15 11 0 15 12 15 45 0 25 5 45 10 45
6 0 10 18 10 40 0 22 -4 40 -10 40 -6 0 -10 27 -10 60 0 47 -3 60 -15 60 -12
0 -15 -16 -15 -85z"/>
<path d="M1590 830 l0 -50 45 0 45 0 0 50 c0 28 -4 50 -10 50 -5 0 -10 -7 -10
-15 0 -9 -9 -15 -25 -15 -16 0 -25 6 -25 15 0 8 -4 15 -10 15 -5 0 -10 -22
-10 -50z"/>
<path d="M1830 865 c0 -8 -4 -15 -10 -15 -5 0 -10 -16 -10 -35 l0 -35 60 0 60
0 0 35 c0 34 -1 35 -40 35 -29 0 -40 4 -40 15 0 8 -4 15 -10 15 -5 0 -10 -7
-10 -15z"/>
<path d="M2050 840 c0 -22 5 -40 10 -40 6 0 10 18 10 40 0 22 -4 40 -10 40 -5
0 -10 -18 -10 -40z"/>
<path d="M2220 840 c0 -29 4 -40 15 -40 11 0 15 11 15 40 0 29 -4 40 -15 40
-11 0 -15 -11 -15 -40z"/>
<path d="M2340 699 c0 -143 -3 -183 -14 -195 -8 -8 -19 -14 -25 -14 -6 0 -11
-6 -11 -13 0 -7 -9 -19 -20 -27 -11 -8 -20 -24 -20 -35 0 -11 9 -27 20 -35 11
-8 20 -20 20 -27 0 -7 7 -13 15 -13 10 0 15 -11 15 -35 l0 -35 -50 0 -50 0 0
-60 c0 -57 1 -60 25 -60 19 0 25 5 25 21 0 22 22 49 39 49 6 0 11 -16 11 -35
0 -19 5 -35 10 -35 6 0 10 -7 10 -15 0 -8 7 -15 15 -15 13 0 15 49 15 380 0
331 -2 380 -15 380 -13 0 -15 -27 -15 -181z"/>
<path d="M2440 865 c0 -8 7 -15 15 -15 8 0 15 7 15 15 0 8 -7 15 -15 15 -8 0
-15 -7 -15 -15z"/>
<path d="M7520 865 c0 -8 -5 -15 -11 -15 -17 0 -39 -27 -39 -49 0 -17 6 -21
35 -21 31 0 35 3 35 25 0 16 6 25 15 25 9 0 15 9 15 25 0 20 -5 25 -25 25 -16
0 -25 -6 -25 -15z"/>
<path d="M15910 869 c0 -14 -25 -39 -39 -39 -6 0 -11 -11 -11 -25 0 -23 3 -25
50 -25 l50 0 0 50 c0 47 -2 50 -25 50 -14 0 -25 -5 -25 -11z"/>
<path d="M1120 815 l0 -35 60 0 60 0 0 35 0 35 -60 0 -60 0 0 -35z"/>
<path d="M380 780 c-8 -11 -20 -20 -27 -20 -7 0 -13 -11 -13 -25 0 -14 5 -25
11 -25 17 0 39 27 39 49 0 12 5 21 10 21 6 0 10 5 10 10 0 16 -15 11 -30 -10z"/>
<path d="M4640 790 c0 -5 5 -10 10 -10 6 0 10 5 10 10 0 6 -4 10 -10 10 -5 0
-10 -4 -10 -10z"/>
<path d="M10890 790 c0 -5 5 -10 10 -10 6 0 10 5 10 10 0 6 -4 10 -10 10 -5 0
-10 -4 -10 -10z"/>
<path d="M11110 790 c0 -5 5 -10 10 -10 6 0 10 5 10 10 0 6 -4 10 -10 10 -5 0
-10 -4 -10 -10z"/>
<path d="M18790 790 c0 -5 7 -10 15 -10 8 0 15 5 15 10 0 6 -7 10 -15 10 -8 0
-15 -4 -15 -10z"/>
<path d="M19040 790 c0 -5 11 -10 25 -10 14 0 25 5 25 10 0 6 -11 10 -25 10
-14 0 -25 -4 -25 -10z"/>
<path d="M8420 770 c0 -5 -11 -10 -25 -10 -22 0 -25 -4 -25 -40 l0 -40 60 0
60 0 0 50 0 50 -35 0 c-19 0 -35 -4 -35 -10z"/>
<path d="M8520 730 l0 -50 35 0 35 0 0 50 0 50 -35 0 -35 0 0 -50z"/>
<path d="M8620 730 l0 -50 35 0 35 0 0 50 0 50 -35 0 -35 0 0 -50z"/>
<path d="M8740 730 c0 -47 2 -50 25 -50 23 0 25 3 25 50 0 47 -2 50 -25 50
-23 0 -25 -3 -25 -50z"/>
<path d="M8840 730 l0 -50 35 0 35 0 0 50 0 50 -35 0 -35 0 0 -50z"/>
<path d="M9080 730 l0 -50 50 0 50 0 0 50 0 50 -50 0 -50 0 0 -50z"/>
<path d="M9200 730 l0 -50 35 0 35 0 0 50 0 50 -35 0 -35 0 0 -50z"/>
<path d="M9350 730 l0 -50 50 0 50 0 0 50 0 50 -50 0 -50 0 0 -50z"/>
<path d="M9470 730 l0 -50 35 0 c33 0 35 2 35 36 0 40 -18 64 -49 64 -18 0
-21 -6 -21 -50z"/>
<path d="M9620 730 l0 -50 35 0 35 0 0 50 0 50 -35 0 -35 0 0 -50z"/>
<path d="M9740 730 c0 -47 2 -50 25 -50 23 0 25 3 25 50 0 47 -2 50 -25 50
-23 0 -25 -3 -25 -50z"/>
<path d="M10010 730 l0 -50 35 0 35 0 0 50 0 50 -35 0 -35 0 0 -50z"/>
<path d="M10100 730 l0 -50 40 0 40 0 0 50 0 50 -40 0 -40 0 0 -50z"/>
<path d="M10200 730 l0 -50 40 0 40 0 0 50 0 50 -40 0 -40 0 0 -50z"/>
<path d="M10300 755 c0 -14 5 -25 10 -25 6 0 10 -11 10 -25 0 -20 5 -25 25
-25 23 0 25 3 25 50 l0 50 -35 0 c-31 0 -35 -3 -35 -25z"/>
<path d="M10420 730 l0 -50 40 0 40 0 0 50 0 50 -40 0 -40 0 0 -50z"/>
<path d="M10520 730 l0 -50 35 0 35 0 0 50 0 50 -35 0 -35 0 0 -50z"/>
<path d="M10620 730 l0 -50 35 0 35 0 0 50 0 50 -35 0 -35 0 0 -50z"/>
<path d="M10710 730 l0 -50 40 0 40 0 0 50 0 50 -40 0 -40 0 0 -50z"/>
<path d="M16110 770 c0 -5 -7 -10 -15 -10 -11 0 -15 -11 -15 -40 l0 -40 50 0
50 0 0 50 0 50 -35 0 c-19 0 -35 -4 -35 -10z"/>
<path d="M16210 730 l0 -50 35 0 35 0 0 50 0 50 -35 0 -35 0 0 -50z"/>
<path d="M16300 730 l0 -50 40 0 40 0 0 50 0 50 -40 0 -40 0 0 -50z"/>
<path d="M16400 730 l0 -50 35 0 35 0 0 50 0 50 -35 0 -35 0 0 -50z"/>
<path d="M16513 765 c-7 -8 -13 -30 -13 -50 l0 -35 50 0 50 0 0 40 c0 29 -4
40 -15 40 -8 0 -15 5 -15 10 0 15 -43 11 -57 -5z"/>
<path d="M16770 730 l0 -50 50 0 c38 0 50 4 50 15 0 8 5 15 10 15 6 0 10 -7
10 -15 0 -9 9 -15 25 -15 23 0 25 3 25 50 l0 50 -85 0 -85 0 0 -50z"/>
<path d="M17040 730 l0 -50 85 0 85 0 0 50 0 50 -85 0 -85 0 0 -50z"/>
<path d="M17300 730 l0 -50 40 0 40 0 0 50 0 50 -40 0 -40 0 0 -50z"/>
<path d="M17400 730 l0 -50 40 0 40 0 0 50 0 50 -40 0 -40 0 0 -50z"/>
<path d="M17700 770 c0 -5 -7 -10 -15 -10 -11 0 -15 -11 -15 -40 0 -39 1 -40
35 -40 l35 0 0 50 c0 43 -3 50 -20 50 -11 0 -20 -4 -20 -10z"/>
<path d="M17790 730 l0 -50 40 0 40 0 0 50 0 50 -40 0 -40 0 0 -50z"/>
<path d="M17890 730 l0 -50 35 0 35 0 0 50 0 50 -35 0 -35 0 0 -50z"/>
<path d="M17990 730 l0 -50 35 0 35 0 0 50 0 50 -35 0 -35 0 0 -50z"/>
<path d="M18103 765 c-7 -8 -13 -30 -13 -50 0 -33 2 -35 35 -35 24 0 35 5 35
15 0 8 5 15 10 15 15 0 12 39 -4 56 -18 18 -47 17 -63 -1z"/>
<path d="M18210 730 l0 -50 35 0 35 0 0 50 0 50 -35 0 -35 0 0 -50z"/>
<path d="M18310 730 l0 -50 35 0 35 0 0 50 0 50 -35 0 -35 0 0 -50z"/>
<path d="M18400 745 c0 -24 5 -35 15 -35 8 0 15 -7 15 -15 0 -9 9 -15 25 -15
23 0 25 3 25 50 l0 50 -40 0 c-39 0 -40 -1 -40 -35z"/>
<path d="M2560 749 c0 -14 -25 -39 -39 -39 -6 0 -11 -6 -11 -13 0 -7 -9 -19
-20 -27 -11 -8 -20 -20 -20 -27 0 -7 -5 -13 -11 -13 -30 0 -39 -30 -39 -124 0
-57 4 -96 10 -96 6 0 10 -50 10 -130 0 -109 2 -130 15 -130 9 0 15 9 15 25 0
22 4 25 35 25 34 0 35 -1 35 -40 0 -36 3 -40 25 -40 l25 0 0 320 c0 278 -2
320 -15 320 -8 0 -15 -5 -15 -11z"/>
<path d="M3590 745 c0 -8 -7 -15 -15 -15 -8 0 -15 -4 -15 -10 0 -5 7 -10 15
-10 11 0 15 -12 15 -50 0 -27 5 -50 10 -50 6 0 10 32 10 75 0 43 -4 75 -10 75
-5 0 -10 -7 -10 -15z"/>
<path d="M3810 745 c0 -11 -11 -15 -40 -15 -22 0 -40 -4 -40 -10 0 -5 18 -10
40 -10 l40 0 0 -50 c0 -27 5 -50 10 -50 6 0 10 23 10 50 0 38 4 50 15 50 8 0
15 5 15 10 0 6 -7 10 -15 10 -8 0 -15 7 -15 15 0 8 -4 15 -10 15 -5 0 -10 -7
-10 -15z"/>
<path d="M3640 680 c0 -27 5 -50 10 -50 6 0 10 23 10 50 0 28 -4 50 -10 50 -5
0 -10 -22 -10 -50z"/>
<path d="M7520 705 c0 -14 -5 -25 -11 -25 -14 0 -39 -25 -39 -39 0 -6 16 -11
35 -11 31 0 35 3 35 25 0 16 6 25 15 25 9 0 15 9 15 25 0 20 -5 25 -25 25 -20
0 -25 -5 -25 -25z"/>
<path d="M8243 715 c-7 -8 -13 -19 -13 -25 0 -5 -5 -10 -11 -10 -14 0 -39 -25
-39 -39 0 -6 20 -11 45 -11 l45 0 0 50 c0 52 -6 59 -27 35z"/>
<path d="M15210 720 c0 -5 -7 -10 -15 -10 -8 0 -15 -7 -15 -15 0 -8 -4 -15
-10 -15 -5 0 -10 -11 -10 -25 0 -22 4 -25 35 -25 24 0 35 5 35 15 0 8 5 15 10
15 6 0 10 16 10 35 0 28 -4 35 -20 35 -11 0 -20 -4 -20 -10z"/>
<path d="M15940 720 c0 -5 -7 -10 -15 -10 -8 0 -15 -5 -15 -11 0 -14 -25 -39
-39 -39 -6 0 -11 -7 -11 -15 0 -11 12 -15 50 -15 l50 0 0 50 c0 28 -4 50 -10
50 -5 0 -10 -4 -10 -10z"/>
<path d="M610 699 c0 -14 -25 -39 -39 -39 -6 0 -11 -21 -11 -50 l0 -50 35 0
35 0 0 75 c0 43 -4 75 -10 75 -5 0 -10 -5 -10 -11z"/>
<path d="M7660 635 l0 -75 195 0 195 0 0 50 c0 38 4 50 15 50 9 0 15 9 15 25
l0 25 -210 0 -210 0 0 -75z"/>
<path d="M15350 635 l0 -75 195 0 195 0 0 75 0 75 -195 0 -195 0 0 -75z"/>
<path d="M270 670 c0 -5 -7 -10 -15 -10 -11 0 -15 -12 -15 -50 0 -38 4 -50 15
-50 9 0 15 9 15 25 0 14 5 25 10 25 6 0 10 16 10 35 0 19 -4 35 -10 35 -5 0
-10 -4 -10 -10z"/>
<path d="M10890 535 c0 -90 4 -145 10 -145 6 0 10 11 10 25 0 24 3 25 60 25
l60 0 0 95 c0 57 -4 95 -10 95 -5 0 -10 -4 -10 -10 0 -5 -5 -10 -11 -10 -17 0
-39 -27 -39 -49 0 -12 -6 -21 -15 -21 -12 0 -15 13 -15 56 0 50 -14 84 -34 84
-3 0 -6 -65 -6 -145z"/>
<path d="M11130 560 l0 -120 25 0 c23 0 25 3 25 50 0 38 -4 50 -15 50 -12 0
-15 14 -15 70 0 40 -4 70 -10 70 -6 0 -10 -47 -10 -120z"/>
<path d="M18570 560 l0 -120 25 0 c23 0 25 3 25 50 0 28 -4 50 -10 50 -6 0
-10 30 -10 70 0 56 -3 70 -15 70 -12 0 -15 -20 -15 -120z"/>
<path d="M18650 560 l0 -120 25 0 25 0 0 110 c0 91 -3 110 -15 110 -8 0 -15 5
-15 10 0 6 -4 10 -10 10 -6 0 -10 -47 -10 -120z"/>
<path d="M18820 545 c0 -113 -2 -135 -15 -135 -8 0 -15 -4 -15 -10 0 -5 7 -10
15 -10 8 0 15 5 15 10 0 6 11 10 25 10 23 0 25 3 25 50 0 28 5 50 10 50 6 0
10 -4 10 -10 0 -5 7 -10 15 -10 9 0 15 -9 15 -25 0 -14 5 -25 10 -25 6 0 10
35 10 85 0 50 -4 85 -10 85 -5 0 -10 -4 -10 -10 0 -5 -7 -10 -15 -10 -9 0 -15
-9 -15 -25 0 -14 -4 -25 -10 -25 -6 0 -10 30 -10 70 0 68 -1 70 -25 70 l-25 0
0 -135z"/>
<path d="M19060 585 c0 -57 -4 -95 -10 -95 -5 0 -10 -11 -10 -25 0 -14 5 -25
10 -25 6 0 10 -7 10 -15 0 -8 7 -15 15 -15 8 0 15 5 15 11 0 14 25 39 39 39 6
0 11 -4 11 -10 0 -5 9 -10 20 -10 18 0 20 7 20 60 0 47 3 60 15 60 10 0 15 11
15 35 0 19 -5 35 -10 35 -14 0 -60 -46 -60 -60 0 -5 -7 -10 -15 -10 -8 0 -15
-4 -15 -10 0 -5 -4 -10 -10 -10 -6 0 -10 30 -10 70 0 56 -3 70 -15 70 -12 0
-15 -17 -15 -95z"/>
<path d="M19330 585 c0 -57 -4 -95 -10 -95 -5 0 -10 -11 -10 -25 0 -14 5 -25
10 -25 6 0 10 -7 10 -15 0 -8 5 -15 10 -15 6 0 10 7 10 15 0 9 9 15 25 15 14
0 25 5 25 10 0 6 7 10 15 10 8 0 15 -4 15 -10 0 -5 5 -10 10 -10 6 0 10 38 10
95 0 57 -4 95 -10 95 -5 0 -10 -9 -10 -20 0 -11 -7 -20 -15 -20 -8 0 -15 -7
-15 -15 0 -9 -9 -15 -25 -15 -24 0 -25 3 -25 60 0 33 -4 60 -10 60 -6 0 -10
-38 -10 -95z"/>
<path d="M1000 645 c0 -12 13 -15 60 -15 47 0 60 3 60 15 0 12 -13 15 -60 15
-47 0 -60 -3 -60 -15z"/>
<path d="M1220 625 c0 -19 -4 -35 -10 -35 -5 0 -10 -18 -10 -40 0 -29 -4 -40
-15 -40 -8 0 -15 -4 -15 -10 0 -5 5 -10 11 -10 14 0 39 25 39 39 0 6 5 11 10
11 6 0 10 20 10 45 l0 45 40 0 c22 0 40 -4 40 -10 0 -5 5 -10 10 -10 6 0 10
11 10 25 0 24 -3 25 -60 25 l-60 0 0 -35z"/>
<path d="M1440 645 c0 -8 5 -15 10 -15 6 0 10 -27 10 -60 0 -47 3 -60 15 -60
12 0 15 13 15 60 l0 60 35 0 35 0 0 -145 c0 -122 2 -145 15 -145 13 0 15 24
15 160 l0 160 -75 0 c-60 0 -75 -3 -75 -15z"/>
<path d="M1680 645 c0 -8 7 -15 15 -15 10 0 15 -11 15 -35 0 -19 5 -35 10 -35
6 0 10 -16 10 -35 0 -24 5 -35 15 -35 11 0 15 12 15 50 0 38 -4 50 -15 50 -8
0 -15 9 -15 20 0 17 7 20 50 20 38 0 50 4 50 15 0 12 -15 15 -75 15 -60 0 -75
-3 -75 -15z"/>
<path d="M1930 649 c0 -14 25 -39 39 -39 6 0 11 5 11 10 0 6 11 10 25 10 16 0
25 6 25 15 0 11 -12 15 -50 15 -29 0 -50 -5 -50 -11z"/>
<path d="M8420 645 c0 -9 -9 -15 -25 -15 -14 0 -25 -4 -25 -10 0 -5 5 -10 11
-10 14 0 39 -25 39 -39 0 -6 16 -11 35 -11 l35 0 0 50 0 50 -35 0 c-24 0 -35
-5 -35 -15z"/>
<path d="M8520 610 l0 -50 35 0 35 0 0 50 0 50 -35 0 -35 0 0 -50z"/>
<path d="M8620 610 l0 -50 35 0 35 0 0 50 0 50 -35 0 -35 0 0 -50z"/>
<path d="M8740 645 c0 -8 -7 -15 -15 -15 -8 0 -15 -4 -15 -10 0 -5 7 -10 15
-10 9 0 15 -9 15 -25 0 -20 5 -25 25 -25 20 0 25 5 25 24 0 13 6 27 13 30 10
5 10 7 0 12 -7 3 -13 12 -13 20 0 8 -10 14 -25 14 -16 0 -25 -6 -25 -15z"/>
<path d="M8840 610 l0 -50 35 0 35 0 0 50 0 50 -35 0 -35 0 0 -50z"/>
<path d="M9080 610 l0 -50 35 0 c24 0 35 5 35 15 0 8 7 15 15 15 10 0 15 11
15 35 l0 35 -50 0 -50 0 0 -50z"/>
<path d="M9200 610 l0 -50 35 0 35 0 0 50 0 50 -35 0 -35 0 0 -50z"/>
<path d="M9350 610 l0 -50 35 0 c24 0 35 5 35 15 0 8 7 15 15 15 8 0 15 5 15
10 0 6 5 10 10 10 6 0 10 -11 10 -25 0 -20 5 -25 25 -25 16 0 25 6 25 15 0 8
5 15 10 15 6 0 10 16 10 35 l0 35 -95 0 -95 0 0 -50z"/>
<path d="M9620 610 l0 -50 35 0 35 0 0 50 0 50 -35 0 -35 0 0 -50z"/>
<path d="M9710 635 c0 -16 6 -25 15 -25 9 0 15 -9 15 -25 0 -20 5 -25 25 -25
23 0 25 3 25 50 l0 50 -40 0 c-36 0 -40 -2 -40 -25z"/>
<path d="M10010 610 l0 -50 35 0 35 0 0 50 0 50 -35 0 -35 0 0 -50z"/>
<path d="M10100 610 l0 -50 40 0 40 0 0 50 0 50 -40 0 -40 0 0 -50z"/>
<path d="M10200 610 l0 -50 40 0 40 0 0 50 0 50 -40 0 -40 0 0 -50z"/>
<path d="M10300 635 c0 -14 5 -25 10 -25 6 0 10 -11 10 -25 0 -20 5 -25 25
-25 23 0 25 3 25 50 l0 50 -35 0 c-31 0 -35 -3 -35 -25z"/>
<path d="M10420 610 c0 -47 2 -50 25 -50 16 0 25 6 25 15 0 8 7 15 15 15 10 0
15 11 15 35 0 34 -1 35 -40 35 l-40 0 0 -50z"/>
<path d="M10520 625 c0 -19 5 -35 10 -35 6 0 10 -7 10 -15 0 -9 9 -15 25 -15
23 0 25 3 25 50 l0 50 -35 0 c-33 0 -35 -2 -35 -35z"/>
<path d="M10620 610 l0 -50 35 0 35 0 0 50 0 50 -35 0 -35 0 0 -50z"/>
<path d="M10710 625 c0 -24 5 -35 15 -35 8 0 15 -7 15 -15 0 -9 9 -15 25 -15
20 0 25 5 25 24 0 13 6 27 13 30 10 5 10 7 0 12 -7 3 -13 12 -13 20 0 10 -12
14 -40 14 -39 0 -40 -1 -40 -35z"/>
<path d="M11230 635 c0 -16 -6 -25 -15 -25 -12 0 -15 -16 -15 -85 l0 -85 40 0
40 0 0 110 0 110 -25 0 c-20 0 -25 -5 -25 -25z"/>
<path d="M11370 610 c0 -38 4 -50 15 -50 11 0 15 12 15 50 0 38 -4 50 -15 50
-11 0 -15 -12 -15 -50z"/>
<path d="M11640 645 c0 -8 7 -15 15 -15 8 0 15 7 15 15 0 8 -7 15 -15 15 -8 0
-15 -7 -15 -15z"/>
<path d="M11740 625 c0 -19 -4 -35 -10 -35 -5 0 -10 -11 -10 -25 0 -20 -5 -25
-25 -25 -16 0 -25 -6 -25 -15 0 -8 -7 -15 -15 -15 -10 0 -15 -11 -15 -35 0
-31 3 -35 25 -35 20 0 25 5 25 25 0 16 6 25 15 25 9 0 15 -9 15 -25 0 -18 5
-25 20 -25 19 0 20 7 20 110 0 67 -4 110 -10 110 -5 0 -10 -16 -10 -35z"/>
<path d="M16110 645 c0 -8 -7 -15 -15 -15 -8 0 -15 -9 -15 -20 0 -11 7 -20 15
-20 8 0 15 -7 15 -15 0 -9 9 -15 25 -15 16 0 25 6 25 15 0 8 5 15 10 15 6 0
10 16 10 35 0 33 -2 35 -35 35 -24 0 -35 -5 -35 -15z"/>
<path d="M16210 610 l0 -50 35 0 35 0 0 50 0 50 -35 0 -35 0 0 -50z"/>
<path d="M16300 610 l0 -50 40 0 40 0 0 50 0 50 -40 0 -40 0 0 -50z"/>
<path d="M16400 610 l0 -50 35 0 35 0 0 50 0 50 -35 0 -35 0 0 -50z"/>
<path d="M16500 625 c0 -19 5 -35 10 -35 6 0 10 -7 10 -15 0 -9 9 -15 25 -15
16 0 25 6 25 15 0 8 7 15 15 15 8 0 15 9 15 20 0 11 -7 20 -15 20 -8 0 -15 7
-15 15 0 10 -11 15 -35 15 -33 0 -35 -2 -35 -35z"/>
<path d="M16770 610 l0 -50 35 0 c24 0 35 5 35 15 0 8 7 15 15 15 8 0 15 5 15
10 0 6 5 10 10 10 6 0 10 -11 10 -25 0 -20 5 -25 25 -25 22 0 25 4 25 35 0 19
5 35 10 35 6 0 10 7 10 15 0 12 -17 15 -95 15 l-95 0 0 -50z"/>
<path d="M17040 610 l0 -50 85 0 85 0 0 50 0 50 -85 0 -85 0 0 -50z"/>
<path d="M17300 610 l0 -50 40 0 40 0 0 50 0 50 -40 0 -40 0 0 -50z"/>
<path d="M17400 610 l0 -50 40 0 40 0 0 50 0 50 -40 0 -40 0 0 -50z"/>
<path d="M17700 645 c0 -8 -7 -15 -15 -15 -8 0 -15 -9 -15 -20 0 -11 7 -20 15
-20 8 0 15 -7 15 -15 0 -8 9 -15 20 -15 15 0 20 7 20 25 0 16 6 25 15 25 8 0
15 5 15 10 0 6 -7 10 -15 10 -8 0 -15 7 -15 15 0 8 -9 15 -20 15 -11 0 -20 -7
-20 -15z"/>
<path d="M17790 610 l0 -50 40 0 40 0 0 50 0 50 -40 0 -40 0 0 -50z"/>
<path d="M17890 610 l0 -50 35 0 35 0 0 50 0 50 -35 0 -35 0 0 -50z"/>
<path d="M17990 610 l0 -50 35 0 35 0 0 50 0 50 -35 0 -35 0 0 -50z"/>
<path d="M18110 645 c0 -8 -4 -15 -10 -15 -5 0 -10 -9 -10 -20 0 -11 5 -20 10
-20 6 0 10 -7 10 -15 0 -9 9 -15 25 -15 16 0 25 6 25 15 0 8 5 15 10 15 6 0
10 9 10 20 0 11 -4 20 -10 20 -5 0 -10 7 -10 15 0 9 -9 15 -25 15 -16 0 -25
-6 -25 -15z"/>
<path d="M18210 610 c0 -47 2 -50 25 -50 16 0 25 6 25 15 0 8 5 15 10 15 6 0
10 16 10 35 0 33 -2 35 -35 35 l-35 0 0 -50z"/>
<path d="M18310 610 l0 -50 35 0 35 0 0 50 0 50 -35 0 -35 0 0 -50z"/>
<path d="M18400 625 c0 -24 5 -35 15 -35 8 0 15 -7 15 -15 0 -9 9 -15 25 -15
23 0 25 3 25 50 l0 50 -40 0 c-39 0 -40 -1 -40 -35z"/>
<path d="M3910 620 c0 -6 63 -10 170 -10 107 0 170 -4 170 -10 0 -15 67 -12
74 3 5 10 7 10 12 0 7 -16 424 -19 424 -3 0 6 16 10 35 10 19 0 35 5 35 10 0
7 -160 10 -460 10 -300 0 -460 -3 -460 -10z"/>
<path d="M11463 595 c-7 -8 -13 -19 -13 -25 0 -5 -7 -10 -15 -10 -8 0 -15 -4
-15 -10 0 -5 -11 -10 -25 -10 -23 0 -25 -3 -25 -50 l0 -50 65 0 65 0 0 85 c0
87 -9 103 -37 70z"/>
<path d="M4950 480 l0 -110 75 0 75 0 0 110 0 110 -75 0 -75 0 0 -110z"/>
<path d="M5490 480 l0 -110 75 0 75 0 0 110 0 110 -75 0 -75 0 0 -110z"/>
<path d="M6000 565 c0 -16 6 -25 15 -25 9 0 15 9 15 25 0 16 -6 25 -15 25 -9
0 -15 -9 -15 -25z"/>
<path d="M6100 565 c0 -16 6 -25 15 -25 8 0 15 -7 15 -15 0 -8 5 -15 10 -15 6
0 10 18 10 40 0 36 -2 40 -25 40 -20 0 -25 -5 -25 -25z"/>
<path d="M6200 550 c0 -36 3 -40 25 -40 16 0 25 6 25 15 0 8 5 15 10 15 6 0
10 11 10 25 0 22 -4 25 -35 25 -34 0 -35 -1 -35 -40z"/>
<path d="M6320 565 c0 -16 6 -25 15 -25 8 0 15 -7 15 -15 0 -8 5 -15 10 -15 6
0 10 18 10 40 0 36 -2 40 -25 40 -20 0 -25 -5 -25 -25z"/>
<path d="M6440 550 c0 -36 3 -40 25 -40 23 0 25 4 25 40 0 36 -2 40 -25 40
-22 0 -25 -4 -25 -40z"/>
<path d="M6570 550 c0 -22 5 -40 10 -40 6 0 10 7 10 15 0 8 5 15 10 15 6 0 10
11 10 25 0 18 -5 25 -20 25 -17 0 -20 -7 -20 -40z"/>
<path d="M6690 550 c0 -22 5 -40 10 -40 6 0 10 7 10 15 0 8 7 15 15 15 9 0 15
9 15 25 0 20 -5 25 -25 25 -22 0 -25 -4 -25 -40z"/>
<path d="M6790 550 c0 -22 5 -40 10 -40 6 0 10 7 10 15 0 8 5 15 10 15 6 0 10
11 10 25 0 18 -5 25 -20 25 -17 0 -20 -7 -20 -40z"/>
<path d="M6910 575 c0 -8 -7 -15 -15 -15 -9 0 -15 -9 -15 -25 0 -20 5 -25 25
-25 16 0 25 6 25 15 0 8 7 15 15 15 9 0 15 9 15 25 0 20 -5 25 -25 25 -16 0
-25 -6 -25 -15z"/>
<path d="M7270 575 c0 -8 7 -15 15 -15 8 0 15 7 15 15 0 8 -7 15 -15 15 -8 0
-15 -7 -15 -15z"/>
<path d="M7350 575 c0 -8 5 -15 10 -15 6 0 10 7 10 15 0 8 -4 15 -10 15 -5 0
-10 -7 -10 -15z"/>
<path d="M8250 565 c0 -14 -4 -25 -10 -25 -5 0 -10 -7 -10 -15 0 -8 -7 -15
-15 -15 -8 0 -15 -4 -15 -10 0 -5 16 -10 35 -10 l35 0 0 50 c0 28 -4 50 -10
50 -5 0 -10 -11 -10 -25z"/>
<path d="M12640 465 c0 -104 2 -125 15 -125 8 0 15 7 15 15 0 11 12 15 45 15
l45 0 0 85 c0 69 3 85 15 85 9 0 15 9 15 25 0 24 -2 25 -75 25 l-75 0 0 -125z"/>
<path d="M13180 480 l0 -110 75 0 75 0 0 110 0 110 -75 0 -75 0 0 -110z"/>
<path d="M13690 550 c0 -29 4 -40 15 -40 11 0 15 11 15 40 0 29 -4 40 -15 40
-11 0 -15 -11 -15 -40z"/>
<path d="M13770 550 c0 -22 5 -40 10 -40 6 0 10 7 10 15 0 9 9 15 25 15 20 0
25 5 25 25 0 22 -4 25 -35 25 -34 0 -35 -1 -35 -40z"/>
<path d="M13890 565 c0 -22 4 -25 35 -25 31 0 35 3 35 25 0 22 -4 25 -35 25
-31 0 -35 -3 -35 -25z"/>
<path d="M14010 565 c0 -20 5 -25 25 -25 20 0 25 5 25 25 0 20 -5 25 -25 25
-20 0 -25 -5 -25 -25z"/>
<path d="M14130 565 c0 -20 5 -25 25 -25 20 0 25 5 25 25 0 20 -5 25 -25 25
-20 0 -25 -5 -25 -25z"/>
<path d="M14250 550 c0 -29 4 -40 15 -40 8 0 15 7 15 15 0 8 5 15 10 15 6 0
10 11 10 25 0 20 -5 25 -25 25 -22 0 -25 -4 -25 -40z"/>
<path d="M14350 565 c0 -20 5 -25 25 -25 20 0 25 5 25 25 0 20 -5 25 -25 25
-20 0 -25 -5 -25 -25z"/>
<path d="M14470 565 c0 -22 4 -25 40 -25 22 0 40 5 40 10 0 6 -7 10 -15 10 -8
0 -15 7 -15 15 0 9 -9 15 -25 15 -20 0 -25 -5 -25 -25z"/>
<path d="M14570 565 c0 -22 4 -25 35 -25 31 0 35 3 35 25 0 22 -4 25 -35 25
-31 0 -35 -3 -35 -25z"/>
<path d="M14940 565 c0 -14 5 -25 10 -25 6 0 10 11 10 25 0 14 -4 25 -10 25
-5 0 -10 -11 -10 -25z"/>
<path d="M15030 575 c0 -8 7 -15 15 -15 8 0 15 7 15 15 0 8 -7 15 -15 15 -8 0
-15 -7 -15 -15z"/>
<path d="M15230 579 c0 -14 -25 -39 -39 -39 -6 0 -11 -7 -11 -15 0 -8 -4 -15
-10 -15 -5 0 -10 -4 -10 -10 0 -15 60 -12 76 4 16 16 19 86 4 86 -5 0 -10 -5
-10 -11z"/>
<path d="M1030 550 c0 -5 5 -10 10 -10 6 0 10 5 10 10 0 6 -4 10 -10 10 -5 0
-10 -4 -10 -10z"/>
<path d="M1290 550 c0 -5 7 -10 15 -10 8 0 15 5 15 10 0 6 -7 10 -15 10 -8 0
-15 -4 -15 -10z"/>
<path d="M1830 525 c0 -19 5 -35 10 -35 6 0 10 -11 10 -25 0 -16 6 -25 15 -25
10 0 15 11 15 35 0 24 -5 35 -15 35 -9 0 -15 9 -15 25 0 14 -4 25 -10 25 -5 0
-10 -16 -10 -35z"/>
<path d="M2000 550 c0 -5 7 -10 15 -10 8 0 15 5 15 10 0 6 -7 10 -15 10 -8 0
-15 -4 -15 -10z"/>
<path d="M2873 545 c-7 -8 -13 -19 -13 -25 0 -5 -11 -10 -25 -10 -14 0 -25 -4
-25 -10 0 -5 -7 -10 -15 -10 -9 0 -15 -9 -15 -25 0 -24 2 -25 75 -25 l75 0 0
60 c0 56 -2 60 -22 60 -13 -1 -29 -7 -35 -15z"/>
<path d="M3093 545 c-7 -8 -13 -19 -13 -25 0 -5 -11 -10 -25 -10 -14 0 -25 -4
-25 -10 0 -5 -7 -10 -15 -10 -8 0 -15 -7 -15 -15 0 -8 -4 -15 -10 -15 -5 0
-10 -4 -10 -10 0 -6 30 -10 70 -10 l70 0 0 60 c0 61 -5 70 -27 45z"/>
<path d="M3320 550 c0 -5 -7 -10 -15 -10 -8 0 -15 -7 -15 -15 0 -8 -9 -15 -20
-15 -11 0 -20 -4 -20 -10 0 -5 -11 -10 -25 -10 -20 0 -25 -5 -25 -25 0 -24 2
-25 70 -25 l70 0 0 60 c0 33 -4 60 -10 60 -5 0 -10 -4 -10 -10z"/>
<path d="M7000 550 c0 -5 11 -10 25 -10 14 0 25 5 25 10 0 6 -11 10 -25 10
-14 0 -25 -4 -25 -10z"/>
<path d="M7180 535 c0 -14 5 -25 10 -25 6 0 10 11 10 25 0 14 -4 25 -10 25 -5
0 -10 -11 -10 -25z"/>
<path d="M7520 550 c0 -5 -7 -10 -15 -10 -8 0 -15 -7 -15 -15 0 -8 -4 -15 -10
-15 -5 0 -10 -4 -10 -10 0 -5 16 -10 35 -10 31 0 35 3 35 25 0 16 6 25 15 25
8 0 15 5 15 10 0 6 -11 10 -25 10 -14 0 -25 -4 -25 -10z"/>
<path d="M12200 550 c0 -5 7 -10 15 -10 8 0 15 5 15 10 0 6 -7 10 -15 10 -8 0
-15 -4 -15 -10z"/>
<path d="M12300 550 c0 -5 7 -10 15 -10 8 0 15 5 15 10 0 6 -7 10 -15 10 -8 0
-15 -4 -15 -10z"/>
<path d="M12420 550 c0 -5 7 -10 15 -10 8 0 15 5 15 10 0 6 -7 10 -15 10 -8 0
-15 -4 -15 -10z"/>
<path d="M12520 550 c0 -5 7 -10 15 -10 8 0 15 5 15 10 0 6 -7 10 -15 10 -8 0
-15 -4 -15 -10z"/>
<path d="M15910 535 c0 -14 -4 -25 -10 -25 -5 0 -10 -4 -10 -10 0 -5 16 -10
35 -10 33 0 35 2 35 35 0 31 -3 35 -25 35 -20 0 -25 -5 -25 -25z"/>
<path d="M710 525 c0 -9 9 -15 25 -15 16 0 25 6 25 15 0 9 -9 15 -25 15 -16 0
-25 -6 -25 -15z"/>
<path d="M4100 475 c0 -37 4 -65 10 -65 6 0 10 28 10 65 0 37 -4 65 -10 65 -6
0 -10 -28 -10 -65z"/>
<path d="M4590 525 c0 -8 5 -15 10 -15 6 0 10 7 10 15 0 8 -4 15 -10 15 -5 0
-10 -7 -10 -15z"/>
<path d="M4640 380 c0 -100 4 -160 10 -160 6 0 10 60 10 160 0 100 -4 160 -10
160 -6 0 -10 -60 -10 -160z"/>
<path d="M3690 330 c0 -113 4 -180 10 -180 6 0 10 67 10 180 0 113 -4 180 -10
180 -6 0 -10 -67 -10 -180z"/>
<path d="M3980 500 c0 -5 5 -10 10 -10 6 0 10 5 10 10 0 6 -4 10 -10 10 -5 0
-10 -4 -10 -10z"/>
<path d="M19500 500 c0 -5 11 -10 25 -10 14 0 25 5 25 10 0 6 -11 10 -25 10
-14 0 -25 -4 -25 -10z"/>
<path d="M1270 440 c0 -38 -4 -50 -15 -50 -8 0 -15 -4 -15 -10 0 -15 19 -12
36 4 16 17 20 106 4 106 -5 0 -10 -22 -10 -50z"/>
<path d="M843 445 c-7 -8 -13 -19 -13 -25 0 -6 -51 -10 -145 -10 -138 0 -145
-1 -145 -20 0 -16 7 -20 35 -20 31 0 35 -3 35 -25 0 -14 5 -25 10 -25 6 0 10
-11 10 -25 0 -16 6 -25 15 -25 9 0 15 9 15 25 0 14 5 25 10 25 6 0 10 -11 10
-25 0 -20 5 -25 25 -25 22 0 25 4 25 35 0 24 5 35 15 35 8 0 15 7 15 15 0 10
11 15 35 15 28 0 35 4 35 20 0 11 5 20 10 20 6 0 10 7 10 15 0 8 7 15 15 15 8
0 15 5 15 10 0 15 -23 12 -37 -5z"/>
<path d="M4250 450 c0 -5 5 -10 10 -10 6 0 10 5 10 10 0 6 -4 10 -10 10 -5 0
-10 -4 -10 -10z"/>
<path d="M4300 450 c0 -5 5 -10 10 -10 6 0 10 -7 10 -15 0 -8 5 -15 10 -15 6
0 10 11 10 25 0 18 -5 25 -20 25 -11 0 -20 -4 -20 -10z"/>
<path d="M4370 450 c0 -5 5 -10 10 -10 6 0 10 5 10 10 0 6 -4 10 -10 10 -5 0
-10 -4 -10 -10z"/>
<path d="M4440 435 c0 -16 6 -25 15 -25 9 0 15 9 15 25 0 16 -6 25 -15 25 -9
0 -15 -9 -15 -25z"/>
<path d="M6000 435 c0 -16 6 -25 15 -25 9 0 15 9 15 25 0 16 -6 25 -15 25 -9
0 -15 -9 -15 -25z"/>
<path d="M6100 435 c0 -20 5 -25 25 -25 20 0 25 5 25 25 0 20 -5 25 -25 25
-20 0 -25 -5 -25 -25z"/>
<path d="M6200 439 c0 -22 22 -49 39 -49 6 0 11 16 11 35 0 31 -3 35 -25 35
-19 0 -25 -5 -25 -21z"/>
<path d="M6350 435 c0 -14 5 -25 10 -25 6 0 10 11 10 25 0 14 -4 25 -10 25 -5
0 -10 -11 -10 -25z"/>
<path d="M6440 435 c0 -16 6 -25 15 -25 8 0 15 -4 15 -10 0 -5 5 -10 10 -10 6
0 10 16 10 35 0 31 -3 35 -25 35 -20 0 -25 -5 -25 -25z"/>
<path d="M6570 425 c0 -19 5 -35 10 -35 6 0 10 16 10 35 0 19 -4 35 -10 35 -5
0 -10 -16 -10 -35z"/>
<path d="M6690 435 c0 -14 5 -25 10 -25 6 0 10 7 10 15 0 8 7 15 15 15 8 0 15
5 15 10 0 6 -11 10 -25 10 -20 0 -25 -5 -25 -25z"/>
<path d="M6790 425 c0 -39 4 -42 26 -21 21 22 18 56 -6 56 -16 0 -20 -7 -20
-35z"/>
<path d="M6910 450 c0 -5 -7 -10 -15 -10 -8 0 -15 -7 -15 -15 0 -9 9 -15 25
-15 20 0 25 5 25 25 0 14 -4 25 -10 25 -5 0 -10 -4 -10 -10z"/>
<path d="M13690 425 c0 -24 5 -35 15 -35 10 0 15 11 15 35 0 24 -5 35 -15 35
-10 0 -15 -11 -15 -35z"/>
<path d="M13770 425 c0 -39 4 -42 26 -21 21 22 18 56 -6 56 -16 0 -20 -7 -20
-35z"/>
<path d="M13890 435 c0 -20 5 -25 25 -25 16 0 25 6 25 15 0 8 5 15 10 15 6 0
10 5 10 10 0 6 -16 10 -35 10 -31 0 -35 -3 -35 -25z"/>
<path d="M14010 435 c0 -20 5 -25 25 -25 20 0 25 5 25 25 0 20 -5 25 -25 25
-20 0 -25 -5 -25 -25z"/>
<path d="M14160 435 c0 -14 5 -25 10 -25 6 0 10 11 10 25 0 14 -4 25 -10 25
-5 0 -10 -11 -10 -25z"/>
<path d="M14250 425 c0 -24 5 -35 15 -35 9 0 15 9 15 25 0 14 5 25 10 25 6 0
10 5 10 10 0 6 -11 10 -25 10 -22 0 -25 -4 -25 -35z"/>
<path d="M14350 435 c0 -16 6 -25 15 -25 9 0 15 9 15 25 0 16 -6 25 -15 25 -9
0 -15 -9 -15 -25z"/>
<path d="M14470 435 c0 -20 5 -25 25 -25 20 0 25 5 25 25 0 20 -5 25 -25 25
-20 0 -25 -5 -25 -25z"/>
<path d="M14570 435 c0 -16 6 -25 15 -25 8 0 15 7 15 15 0 8 9 15 20 15 11 0
20 5 20 10 0 6 -16 10 -35 10 -31 0 -35 -3 -35 -25z"/>
<path d="M1150 405 c0 -19 5 -35 10 -35 6 0 10 16 10 35 0 19 -4 35 -10 35 -5
0 -10 -16 -10 -35z"/>
<path d="M7030 425 c0 -8 5 -15 10 -15 6 0 10 7 10 15 0 8 -4 15 -10 15 -5 0
-10 -7 -10 -15z"/>
<path d="M7860 390 c0 -27 5 -50 10 -50 6 0 10 23 10 50 0 28 -4 50 -10 50 -5
0 -10 -22 -10 -50z"/>
<path d="M9150 405 l0 -35 305 0 305 0 0 35 0 35 -305 0 -305 0 0 -35z"/>
<path d="M15400 270 c0 -144 2 -170 15 -170 13 0 15 26 15 170 0 144 -2 170
-15 170 -13 0 -15 -26 -15 -170z"/>
<path d="M16840 390 c0 -47 2 -50 25 -50 16 0 25 6 25 15 0 13 37 15 270 15
l270 0 0 35 0 35 -295 0 -295 0 0 -50z"/>
<path d="M240 390 c0 -23 16 -26 36 -6 20 20 18 26 -11 26 -18 0 -25 -5 -25
-20z"/>
<path d="M340 400 c0 -5 16 -10 35 -10 19 0 35 5 35 10 0 6 -16 10 -35 10 -19
0 -35 -4 -35 -10z"/>
<path d="M1760 390 c0 -11 5 -20 10 -20 6 0 10 9 10 20 0 11 -4 20 -10 20 -5
0 -10 -9 -10 -20z"/>
<path d="M1880 375 c0 -19 5 -35 10 -35 6 0 10 16 10 35 0 19 -4 35 -10 35 -5
0 -10 -16 -10 -35z"/>
<path d="M7520 390 c0 -11 -7 -20 -15 -20 -9 0 -15 -9 -15 -25 0 -20 5 -25 25
-25 20 0 25 5 25 25 0 16 6 25 15 25 8 0 15 9 15 20 0 15 -7 20 -25 20 -18 0
-25 -5 -25 -20z"/>
<path d="M7710 400 c0 -5 7 -10 15 -10 8 0 15 5 15 10 0 6 -7 10 -15 10 -8 0
-15 -4 -15 -10z"/>
<path d="M8240 390 c-8 -11 -20 -20 -27 -20 -7 0 -13 -11 -13 -25 0 -22 4 -25
35 -25 35 0 35 0 35 45 0 49 -8 56 -30 25z"/>
<path d="M15210 400 c0 -5 -5 -10 -11 -10 -17 0 -39 -27 -39 -49 0 -17 6 -21
31 -21 39 0 59 20 59 59 0 24 -4 31 -20 31 -11 0 -20 -4 -20 -10z"/>
<path d="M15940 400 c0 -5 -5 -10 -11 -10 -17 0 -39 -27 -39 -49 0 -25 34 -29
56 -7 16 16 19 76 4 76 -5 0 -10 -4 -10 -10z"/>
<path d="M6100 330 c0 -5 11 -10 25 -10 14 0 25 5 25 10 0 6 -11 10 -25 10
-14 0 -25 -4 -25 -10z"/>
<path d="M6200 319 c0 -22 22 -49 39 -49 6 0 11 16 11 35 0 31 -3 35 -25 35
-19 0 -25 -5 -25 -21z"/>
<path d="M6320 330 c0 -5 7 -10 15 -10 9 0 15 -9 15 -25 0 -14 5 -25 10 -25 6
0 10 16 10 35 0 31 -3 35 -25 35 -14 0 -25 -4 -25 -10z"/>
<path d="M6440 305 c0 -31 3 -35 25 -35 22 0 25 4 25 35 0 31 -3 35 -25 35
-22 0 -25 -4 -25 -35z"/>
<path d="M6570 305 c0 -19 5 -35 10 -35 6 0 10 16 10 35 0 19 -4 35 -10 35 -5
0 -10 -16 -10 -35z"/>
<path d="M6690 305 c0 -19 5 -35 10 -35 6 0 10 11 10 25 0 16 6 25 15 25 8 0
15 5 15 10 0 6 -11 10 -25 10 -22 0 -25 -4 -25 -35z"/>
<path d="M6790 305 c0 -39 4 -42 26 -21 21 22 18 56 -6 56 -16 0 -20 -7 -20
-35z"/>
<path d="M6880 315 c0 -16 6 -25 15 -25 8 0 15 -4 15 -10 0 -5 11 -10 25 -10
14 0 25 5 25 10 0 6 -7 10 -15 10 -8 0 -15 5 -15 11 0 14 -25 39 -39 39 -6 0
-11 -11 -11 -25z"/>
<path d="M8420 316 c0 -13 -6 -27 -12 -30 -10 -5 -10 -7 0 -12 6 -3 12 -12 12
-20 0 -8 10 -14 25 -14 16 0 25 6 25 15 0 8 5 15 10 15 6 0 10 11 10 25 0 20
-5 25 -25 25 -14 0 -25 5 -25 10 0 6 -4 10 -10 10 -5 0 -10 -11 -10 -24z"/>
<path d="M8520 290 l0 -50 35 0 35 0 0 50 0 50 -35 0 -35 0 0 -50z"/>
<path d="M8633 325 c-15 -17 -17 -55 -3 -55 6 0 10 -7 10 -15 0 -9 9 -15 25
-15 23 0 25 3 25 50 0 45 -2 50 -22 50 -13 -1 -29 -7 -35 -15z"/>
<path d="M8740 290 c0 -47 2 -50 25 -50 23 0 25 3 25 50 0 47 -2 50 -25 50
-23 0 -25 -3 -25 -50z"/>
<path d="M10010 290 l0 -50 35 0 c34 0 35 1 35 40 0 36 -2 40 -25 40 -14 0
-25 5 -25 10 0 6 -4 10 -10 10 -5 0 -10 -22 -10 -50z"/>
<path d="M10100 290 l0 -50 40 0 40 0 0 50 0 50 -40 0 -40 0 0 -50z"/>
<path d="M10230 330 c0 -5 -7 -10 -15 -10 -11 0 -15 -11 -15 -40 l0 -40 40 0
40 0 0 50 c0 47 -2 50 -25 50 -14 0 -25 -4 -25 -10z"/>
<path d="M10320 290 c0 -47 2 -50 25 -50 23 0 25 3 25 50 0 47 -2 50 -25 50
-23 0 -25 -3 -25 -50z"/>
<path d="M10570 330 c0 -5 -11 -10 -25 -10 -14 0 -25 -5 -25 -11 0 -14 25 -39
39 -39 6 0 11 -7 11 -15 0 -8 5 -15 10 -15 6 0 10 23 10 50 0 28 -4 50 -10 50
-5 0 -10 -4 -10 -10z"/>
<path d="M10740 330 c0 -5 -7 -10 -15 -10 -9 0 -15 -9 -15 -25 0 -16 6 -25 15
-25 8 0 15 -7 15 -15 0 -9 9 -15 25 -15 23 0 25 3 25 50 0 47 -2 50 -25 50
-14 0 -25 -4 -25 -10z"/>
<path d="M12520 330 c0 -5 7 -10 15 -10 8 0 15 5 15 10 0 6 -7 10 -15 10 -8 0
-15 -4 -15 -10z"/>
<path d="M13690 330 c0 -5 7 -10 15 -10 8 0 15 5 15 10 0 6 -7 10 -15 10 -8 0
-15 -4 -15 -10z"/>
<path d="M13770 305 c0 -19 5 -35 10 -35 6 0 10 11 10 25 0 14 5 25 10 25 6 0
10 5 10 10 0 6 -9 10 -20 10 -16 0 -20 -7 -20 -35z"/>
<path d="M13890 330 c0 -5 11 -10 25 -10 14 0 25 5 25 10 0 6 -11 10 -25 10
-14 0 -25 -4 -25 -10z"/>
<path d="M14010 330 c0 -5 11 -10 25 -10 14 0 25 5 25 10 0 6 -11 10 -25 10
-14 0 -25 -4 -25 -10z"/>
<path d="M14160 330 c0 -5 5 -10 10 -10 6 0 10 5 10 10 0 6 -4 10 -10 10 -5 0
-10 -4 -10 -10z"/>
<path d="M14250 305 c0 -24 5 -35 15 -35 9 0 15 9 15 25 0 14 5 25 10 25 6 0
10 5 10 10 0 6 -11 10 -25 10 -22 0 -25 -4 -25 -35z"/>
<path d="M14350 330 c0 -5 11 -10 25 -10 14 0 25 5 25 10 0 6 -11 10 -25 10
-14 0 -25 -4 -25 -10z"/>
<path d="M14470 305 c0 -24 5 -35 15 -35 9 0 15 9 15 25 0 14 5 25 10 25 6 0
10 5 10 10 0 6 -11 10 -25 10 -22 0 -25 -4 -25 -35z"/>
<path d="M16300 290 l0 -50 40 0 40 0 0 40 c0 36 -2 40 -25 40 -14 0 -25 5
-25 10 0 6 -7 10 -15 10 -11 0 -15 -12 -15 -50z"/>
<path d="M16430 330 c0 -5 -7 -10 -15 -10 -11 0 -15 -11 -15 -40 0 -39 1 -40
35 -40 l35 0 0 50 c0 43 -3 50 -20 50 -11 0 -20 -4 -20 -10z"/>
<path d="M16513 325 c-7 -8 -13 -30 -13 -50 0 -33 2 -35 35 -35 l35 0 0 50 c0
45 -2 50 -22 50 -13 -1 -29 -7 -35 -15z"/>
<path d="M17700 290 c0 -43 3 -50 20 -50 17 0 20 7 20 50 0 43 -3 50 -20 50
-17 0 -20 -7 -20 -50z"/>
<path d="M18110 290 c0 -47 2 -50 25 -50 20 0 25 5 25 25 0 14 5 25 10 25 6 0
10 5 10 11 0 17 -27 39 -49 39 -18 0 -21 -6 -21 -50z"/>
<path d="M18210 290 c0 -47 2 -50 25 -50 16 0 25 6 25 15 0 8 5 15 10 15 15 0
12 39 -4 56 -8 8 -24 14 -35 14 -18 0 -21 -6 -21 -50z"/>
<path d="M18323 325 c-7 -8 -13 -30 -13 -50 0 -33 2 -35 35 -35 l35 0 0 50 c0
45 -2 50 -22 50 -13 -1 -29 -7 -35 -15z"/>
<path d="M18450 330 c0 -5 -11 -10 -25 -10 -16 0 -25 -6 -25 -15 0 -8 7 -15
15 -15 9 0 15 -9 15 -25 0 -20 5 -25 25 -25 23 0 25 3 25 50 0 38 -4 50 -15
50 -8 0 -15 -4 -15 -10z"/>
<path d="M19890 315 c0 -16 6 -25 15 -25 8 0 15 7 15 15 0 8 5 15 10 15 6 0
10 5 10 10 0 6 -11 10 -25 10 -20 0 -25 -5 -25 -25z"/>
<path d="M8840 280 c0 -39 1 -40 35 -40 34 0 35 1 35 40 0 39 -1 40 -35 40
-34 0 -35 -1 -35 -40z"/>
<path d="M9300 170 l0 -150 25 0 c20 0 25 5 25 25 0 14 5 25 10 25 6 0 10 18
10 40 l0 40 40 0 c29 0 40 -4 40 -15 0 -8 9 -15 20 -15 11 0 20 7 20 15 0 11
11 15 40 15 l40 0 0 -50 c0 -27 5 -50 10 -50 6 0 10 43 10 110 0 91 3 110 15
110 8 0 15 5 15 10 0 6 -7 10 -15 10 -8 0 -15 7 -15 15 0 13 -23 15 -145 15
l-145 0 0 -150z m100 40 c0 -5 -7 -10 -15 -10 -8 0 -15 5 -15 10 0 6 7 10 15
10 8 0 15 -4 15 -10z"/>
<path d="M10420 280 c0 -36 3 -40 25 -40 16 0 25 6 25 15 0 8 7 15 15 15 9 0
15 9 15 25 0 23 -4 25 -40 25 l-40 0 0 -40z"/>
<path d="M10620 280 c0 -39 1 -40 35 -40 34 0 35 1 35 40 0 39 -1 40 -35 40
-34 0 -35 -1 -35 -40z"/>
<path d="M16080 305 c0 -8 7 -15 15 -15 9 0 15 -9 15 -25 0 -20 5 -25 25 -25
16 0 25 6 25 15 0 8 5 15 10 15 6 0 10 11 10 25 0 23 -3 25 -50 25 -38 0 -50
-4 -50 -15z"/>
<path d="M16210 280 c0 -22 5 -40 10 -40 6 0 10 7 10 15 0 8 7 15 15 15 8 0
15 -7 15 -15 0 -8 5 -15 10 -15 6 0 10 18 10 40 0 39 -1 40 -35 40 -34 0 -35
-1 -35 -40z"/>
<path d="M16990 170 c0 -93 4 -150 10 -150 6 0 10 7 10 15 0 8 7 15 15 15 12
0 15 16 15 85 0 50 4 85 10 85 6 0 10 -4 10 -10 0 -5 7 -10 15 -10 9 0 15 -9
15 -25 0 -25 1 -25 85 -25 l85 0 0 -50 c0 -27 5 -50 10 -50 6 0 10 43 10 109
0 78 4 111 13 115 10 5 10 7 0 12 -7 3 -13 12 -13 20 0 11 -27 14 -145 14
l-145 0 0 -150z"/>
<path d="M17790 280 c0 -29 4 -40 15 -40 8 0 15 7 15 15 0 8 5 15 10 15 6 0
10 -7 10 -15 0 -8 7 -15 15 -15 11 0 15 11 15 40 l0 40 -40 0 -40 0 0 -40z"/>
<path d="M17890 280 c0 -22 5 -40 10 -40 6 0 10 7 10 15 0 9 9 15 25 15 20 0
25 5 25 25 0 22 -4 25 -35 25 -34 0 -35 -1 -35 -40z"/>
<path d="M17990 280 c0 -36 3 -40 25 -40 16 0 25 6 25 15 0 8 5 15 10 15 6 0
10 11 10 25 0 22 -4 25 -35 25 -34 0 -35 -1 -35 -40z"/>
<path d="M19400 305 c0 -10 -11 -15 -35 -15 l-35 0 0 -95 c0 -57 -4 -95 -10
-95 -5 0 -10 -5 -10 -11 0 -17 27 -39 49 -39 17 0 21 6 21 35 0 19 5 35 10 35
6 0 10 7 10 15 0 8 7 15 15 15 10 0 15 11 15 35 0 24 -5 35 -15 35 -9 0 -15
-9 -15 -25 0 -20 -5 -25 -25 -25 -22 0 -25 4 -25 35 0 24 5 35 15 35 8 0 15 7
15 15 0 9 9 15 25 15 20 0 25 5 25 25 0 16 -6 25 -15 25 -8 0 -15 -7 -15 -15z"/>
<path d="M950 265 c0 -14 -4 -25 -10 -25 -5 0 -10 7 -10 15 0 11 -12 15 -50
15 l-50 0 0 -110 c0 -67 4 -110 10 -110 6 0 10 35 10 85 l0 85 50 0 50 0 0
-35 c0 -24 5 -35 15 -35 11 0 15 -12 15 -50 0 -27 5 -50 10 -50 17 0 13 209
-4 226 -22 21 -36 17 -36 -11z"/>
<path d="M2120 280 c0 -5 -16 -10 -35 -10 l-35 0 0 -75 c0 -43 4 -75 10 -75 6
0 10 7 10 15 0 8 7 15 15 15 9 0 15 9 15 25 0 14 5 25 10 25 6 0 10 -7 10 -15
0 -8 7 -15 15 -15 12 0 15 13 15 60 0 47 -3 60 -15 60 -8 0 -15 -4 -15 -10z"/>
<path d="M10890 170 c0 -113 1 -120 20 -120 16 0 20 7 20 35 0 24 5 35 15 35
8 0 15 7 15 15 0 8 5 15 10 15 6 0 10 -7 10 -15 0 -9 9 -15 25 -15 25 0 25 1
25 85 l0 85 -70 0 -70 0 0 -120z m120 75 c0 -14 -5 -25 -11 -25 -14 0 -39 -25
-39 -39 0 -6 -11 -11 -25 -11 -22 0 -25 4 -25 35 0 19 5 35 10 35 6 0 10 7 10
15 0 11 11 15 40 15 36 0 40 -2 40 -25z"/>
<path d="M11110 255 c0 -19 5 -35 10 -35 6 0 10 5 10 10 0 6 11 10 25 10 14 0
25 -4 25 -10 0 -5 11 -10 25 -10 14 0 25 5 25 10 0 6 47 10 120 10 73 0 120
-4 120 -10 0 -5 7 -10 15 -10 9 0 15 9 15 25 0 22 4 25 35 25 19 0 35 5 35 10
0 6 -83 10 -230 10 l-230 0 0 -35z"/>
<path d="M11640 265 c0 -16 6 -25 15 -25 8 0 15 7 15 15 0 8 5 15 10 15 6 0
10 5 10 10 0 6 -11 10 -25 10 -20 0 -25 -5 -25 -25z"/>
<path d="M18570 265 c0 -20 5 -25 25 -25 20 0 25 5 25 25 0 20 -5 25 -25 25
-20 0 -25 -5 -25 -25z"/>
<path d="M18650 170 c0 -73 4 -120 10 -120 6 0 10 5 10 10 0 6 7 10 15 10 12
0 15 18 15 100 0 60 4 100 10 100 6 0 10 5 10 10 0 6 -16 10 -35 10 l-35 0 0
-120z"/>
<path d="M18790 220 c0 -56 3 -70 15 -70 12 0 15 13 15 60 0 33 4 60 10 60 6
0 10 -7 10 -15 0 -8 7 -15 15 -15 8 0 15 -4 15 -10 0 -5 16 -10 35 -10 19 0
35 5 35 10 0 6 43 10 110 10 l110 0 0 -60 c0 -33 4 -60 10 -60 6 0 10 32 10
75 l0 75 40 0 c22 0 40 5 40 10 0 6 -85 10 -235 10 l-235 0 0 -70z"/>
<path d="M340 245 c0 -28 14 -32 36 -11 21 22 17 36 -11 36 -20 0 -25 -5 -25
-25z"/>
<path d="M760 145 c0 -77 4 -125 10 -125 6 0 10 48 10 125 0 77 -4 125 -10
125 -6 0 -10 -48 -10 -125z"/>
<path d="M2900 260 c0 -19 -48 -60 -70 -60 -11 0 -20 -7 -20 -15 0 -8 -7 -15
-15 -15 -8 0 -15 -4 -15 -10 0 -15 78 -12 82 2 5 15 38 -13 38 -31 0 -6 7 -11
15 -11 12 0 15 15 15 75 0 60 -3 75 -15 75 -8 0 -15 -5 -15 -10z"/>
<path d="M15230 259 c0 -11 -25 -39 -35 -39 -10 0 -35 -28 -35 -39 0 -6 16
-11 35 -11 31 0 35 3 35 25 0 14 5 25 10 25 6 0 10 11 10 25 0 14 -4 25 -10
25 -5 0 -10 -5 -10 -11z"/>
<path d="M3090 220 c-8 -11 -25 -20 -37 -20 -14 0 -23 -6 -23 -15 0 -8 -7 -15
-15 -15 -8 0 -15 -4 -15 -10 0 -6 27 -10 60 -10 l60 0 0 45 c0 49 -8 56 -30
25z"/>
<path d="M3273 215 c-13 -13 -23 -29 -23 -35 0 -5 -11 -10 -25 -10 -14 0 -25
-4 -25 -10 0 -6 30 -10 70 -10 l70 0 0 45 c0 40 -2 45 -22 44 -13 0 -33 -11
-45 -24z"/>
<path d="M7100 230 c0 -5 7 -10 15 -10 8 0 15 5 15 10 0 6 -7 10 -15 10 -8 0
-15 -4 -15 -10z"/>
<path d="M7520 230 c0 -5 -7 -10 -15 -10 -9 0 -15 -9 -15 -25 0 -20 5 -25 25
-25 20 0 25 5 25 25 0 16 6 25 15 25 8 0 15 5 15 10 0 6 -11 10 -25 10 -14 0
-25 -4 -25 -10z"/>
<path d="M8240 220 c-8 -11 -20 -20 -27 -20 -7 0 -13 -7 -13 -15 0 -10 11 -15
35 -15 33 0 35 2 35 35 0 40 -9 44 -30 15z"/>
<path d="M11733 225 c-7 -8 -13 -28 -13 -45 0 -23 4 -30 20 -30 17 0 20 7 20
45 0 47 -6 54 -27 30z"/>
<path d="M12200 230 c0 -5 11 -10 25 -10 14 0 25 5 25 10 0 6 -11 10 -25 10
-14 0 -25 -4 -25 -10z"/>
<path d="M12300 230 c0 -5 11 -10 25 -10 14 0 25 5 25 10 0 6 -11 10 -25 10
-14 0 -25 -4 -25 -10z"/>
<path d="M12450 205 c0 -19 5 -35 10 -35 6 0 10 16 10 35 0 19 -4 35 -10 35
-5 0 -10 -16 -10 -35z"/>
<path d="M15940 230 c0 -5 -5 -10 -11 -10 -14 0 -39 -25 -39 -39 0 -6 11 -11
25 -11 16 0 25 6 25 15 0 8 5 15 10 15 6 0 10 9 10 20 0 11 -4 20 -10 20 -5 0
-10 -4 -10 -10z"/>
<path d="M19890 230 c0 -5 11 -10 25 -10 14 0 25 5 25 10 0 6 -11 10 -25 10
-14 0 -25 -4 -25 -10z"/>
<path d="M5320 210 c0 -6 -52 -10 -135 -10 l-135 0 0 -75 c0 -60 3 -75 15 -75
10 0 15 11 15 35 l0 35 350 0 350 0 0 -50 c0 -38 4 -50 15 -50 12 0 15 18 15
100 0 82 -3 100 -15 100 -8 0 -15 -4 -15 -10 0 -6 -38 -10 -95 -10 -57 0 -95
4 -95 10 0 6 -7 10 -15 10 -8 0 -15 -4 -15 -10 0 -5 -9 -10 -20 -10 -11 0 -20
5 -20 10 0 14 -27 12 -34 -2 -5 -10 -7 -10 -12 0 -7 14 -34 16 -34 2 0 -15
-47 -12 -53 3 -4 9 -8 8 -17 -3 -9 -11 -13 -12 -17 -2 -6 14 -33 16 -33 2z"/>
<path d="M8420 170 c0 -47 2 -50 25 -50 20 0 25 5 25 25 0 14 5 25 10 25 6 0
10 7 10 15 0 9 -9 15 -25 15 -14 0 -25 5 -25 10 0 6 -4 10 -10 10 -5 0 -10
-22 -10 -50z"/>
<path d="M8520 170 l0 -50 35 0 c34 0 35 1 35 40 0 36 -2 40 -25 40 -14 0 -25
5 -25 10 0 6 -4 10 -10 10 -5 0 -10 -22 -10 -50z"/>
<path d="M10010 170 c0 -47 2 -50 25 -50 16 0 25 6 25 15 0 8 5 15 10 15 6 0
10 11 10 25 0 20 -5 25 -25 25 -14 0 -25 5 -25 10 0 6 -4 10 -10 10 -5 0 -10
-22 -10 -50z"/>
<path d="M10100 170 l0 -50 40 0 40 0 0 40 c0 36 -2 40 -25 40 -14 0 -25 5
-25 10 0 6 -7 10 -15 10 -11 0 -15 -12 -15 -50z"/>
<path d="M10230 210 c0 -5 -7 -10 -15 -10 -11 0 -15 -11 -15 -40 l0 -40 40 0
40 0 0 40 c0 29 -4 40 -15 40 -8 0 -15 5 -15 10 0 6 -4 10 -10 10 -5 0 -10 -4
-10 -10z"/>
<path d="M13080 210 c0 -6 -63 -10 -170 -10 l-170 0 0 -90 c0 -53 4 -90 10
-90 6 0 10 7 10 15 0 8 7 15 15 15 11 0 15 12 15 50 0 47 2 50 25 50 16 0 25
-6 25 -15 0 -9 9 -15 25 -15 16 0 25 6 25 15 0 12 13 15 60 15 47 0 60 -3 60
-15 0 -13 34 -15 245 -15 l245 0 0 40 c0 40 0 40 -39 40 -22 0 -42 6 -45 13
-5 10 -7 10 -12 0 -3 -7 -16 -13 -29 -13 -13 0 -26 6 -29 13 -5 10 -7 10 -12
0 -7 -15 -104 -18 -104 -3 0 6 -7 10 -15 10 -8 0 -15 -4 -15 -10 0 -5 -9 -10
-20 -10 -11 0 -20 5 -20 10 0 14 -27 12 -34 -2 -5 -10 -7 -10 -12 0 -7 14 -34
16 -34 2z"/>
<path d="M16513 205 c-15 -17 -17 -55 -3 -55 6 0 10 -7 10 -15 0 -9 9 -15 25
-15 22 0 25 4 25 36 0 33 -18 64 -37 64 -4 -1 -14 -7 -20 -15z"/>
<path d="M17700 170 c0 -43 3 -50 20 -50 16 0 20 7 20 36 0 31 -18 64 -34 64
-3 0 -6 -22 -6 -50z"/>
<path d="M18110 170 c0 -47 2 -50 25 -50 23 0 25 4 25 40 0 29 -4 40 -15 40
-8 0 -15 5 -15 10 0 6 -4 10 -10 10 -5 0 -10 -22 -10 -50z"/>
<path d="M18210 170 c0 -47 2 -50 25 -50 16 0 25 6 25 15 0 8 5 15 10 15 6 0
10 11 10 25 0 20 -5 25 -25 25 -14 0 -25 5 -25 10 0 6 -4 10 -10 10 -5 0 -10
-22 -10 -50z"/>
<path d="M18323 205 c-7 -8 -13 -30 -13 -50 0 -33 2 -35 35 -35 34 0 35 1 35
40 0 29 -4 40 -15 40 -8 0 -15 5 -15 10 0 14 -13 12 -27 -5z"/>
<path d="M19530 210 c0 -5 5 -10 10 -10 6 0 10 5 10 10 0 6 -4 10 -10 10 -5 0
-10 -4 -10 -10z"/>
<path d="M20140 210 c0 -5 5 -10 10 -10 6 0 10 5 10 10 0 6 -4 10 -10 10 -5 0
-10 -4 -10 -10z"/>
<path d="M1220 125 c0 -43 4 -75 10 -75 6 0 10 23 10 50 l0 50 260 0 260 0 0
-50 c0 -27 5 -50 10 -50 6 0 10 32 10 75 l0 75 -280 0 -280 0 0 -75z"/>
<path d="M8620 175 c0 -14 5 -25 10 -25 6 0 10 -7 10 -15 0 -9 9 -15 25 -15
23 0 25 4 25 40 0 39 -1 40 -35 40 -31 0 -35 -3 -35 -25z"/>
<path d="M8740 160 c0 -36 3 -40 25 -40 23 0 25 4 25 40 0 36 -2 40 -25 40
-22 0 -25 -4 -25 -40z"/>
<path d="M8840 175 c0 -14 5 -25 10 -25 6 0 10 -7 10 -15 0 -9 9 -15 25 -15
23 0 25 4 25 40 0 39 -1 40 -35 40 -31 0 -35 -3 -35 -25z"/>
<path d="M10320 160 c0 -36 3 -40 25 -40 23 0 25 4 25 40 0 36 -2 40 -25 40
-22 0 -25 -4 -25 -40z"/>
<path d="M10420 160 c0 -36 3 -40 25 -40 16 0 25 6 25 15 0 8 7 15 15 15 9 0
15 9 15 25 0 23 -4 25 -40 25 l-40 0 0 -40z"/>
<path d="M10520 175 c0 -20 5 -25 25 -25 16 0 25 -6 25 -15 0 -8 5 -15 10 -15
6 0 10 18 10 40 0 39 -1 40 -35 40 -31 0 -35 -3 -35 -25z"/>
<path d="M10620 160 c0 -39 1 -40 35 -40 34 0 35 1 35 40 0 39 -1 40 -35 40
-34 0 -35 -1 -35 -40z"/>
<path d="M10710 185 c0 -8 7 -15 15 -15 9 0 15 -9 15 -25 0 -20 5 -25 25 -25
23 0 25 4 25 40 l0 40 -40 0 c-29 0 -40 -4 -40 -15z"/>
<path d="M11470 185 c0 -8 7 -15 15 -15 8 0 15 7 15 15 0 8 -7 15 -15 15 -8 0
-15 -7 -15 -15z"/>
<path d="M16110 160 c0 -22 5 -40 10 -40 6 0 10 7 10 15 0 8 5 15 11 15 14 0
39 25 39 39 0 6 -16 11 -35 11 -34 0 -35 -1 -35 -40z"/>
<path d="M16210 160 c0 -22 5 -40 10 -40 6 0 10 7 10 15 0 8 7 15 15 15 8 0
15 -7 15 -15 0 -8 5 -15 10 -15 6 0 10 18 10 40 0 39 -1 40 -35 40 -34 0 -35
-1 -35 -40z"/>
<path d="M16300 160 l0 -40 40 0 40 0 0 40 0 40 -40 0 -40 0 0 -40z"/>
<path d="M16400 160 c0 -39 1 -40 35 -40 34 0 35 1 35 40 0 39 -1 40 -35 40
-34 0 -35 -1 -35 -40z"/>
<path d="M17790 160 c0 -29 4 -40 15 -40 8 0 15 7 15 15 0 8 5 15 10 15 6 0
10 -7 10 -15 0 -8 7 -15 15 -15 11 0 15 11 15 40 l0 40 -40 0 -40 0 0 -40z"/>
<path d="M17890 160 c0 -22 5 -40 10 -40 6 0 10 7 10 15 0 9 9 15 25 15 20 0
25 5 25 25 0 22 -4 25 -35 25 -34 0 -35 -1 -35 -40z"/>
<path d="M17990 160 c0 -36 3 -40 25 -40 16 0 25 6 25 15 0 8 5 15 10 15 6 0
10 11 10 25 0 22 -4 25 -35 25 -34 0 -35 -1 -35 -40z"/>
<path d="M18400 185 c0 -8 7 -15 15 -15 9 0 15 -9 15 -25 0 -20 5 -25 25 -25
23 0 25 4 25 40 l0 40 -40 0 c-29 0 -40 -4 -40 -15z"/>
<path d="M18960 110 c0 -73 3 -90 15 -90 12 0 15 17 15 90 0 73 -3 90 -15 90
-12 0 -15 -17 -15 -90z"/>
<path d="M240 120 c0 -38 4 -50 15 -50 11 0 15 11 15 40 0 22 5 40 10 40 6 0
10 5 10 10 0 6 -11 10 -25 10 -23 0 -25 -3 -25 -50z"/>
<path d="M11280 95 c0 -43 4 -75 10 -75 6 0 10 7 10 15 0 8 5 15 10 15 6 0 10
27 10 60 0 53 -2 60 -20 60 -18 0 -20 -7 -20 -75z"/>
<path d="M11640 100 c0 -29 5 -50 11 -50 21 0 39 29 39 64 0 32 -3 36 -25 36
-23 0 -25 -3 -25 -50z"/>
<path d="M18570 100 c0 -29 5 -50 11 -50 21 0 39 29 39 64 0 32 -3 36 -25 36
-23 0 -25 -3 -25 -50z"/>
<path d="M18790 110 c0 -5 7 -10 15 -10 8 0 15 5 15 10 0 6 -7 10 -15 10 -8 0
-15 -4 -15 -10z"/>
<path d="M6080 60 c0 -22 5 -40 10 -40 6 0 10 7 10 15 0 8 7 15 15 15 9 0 15
9 15 25 0 20 -5 25 -25 25 -22 0 -25 -4 -25 -40z"/>
<path d="M6320 60 c0 -36 3 -40 25 -40 16 0 25 6 25 15 0 8 5 15 10 15 6 0 10
11 10 25 0 22 -4 25 -35 25 -34 0 -35 -1 -35 -40z"/>
<path d="M6590 75 c0 -14 5 -25 10 -25 6 0 10 -7 10 -15 0 -8 7 -15 15 -15 11
0 15 11 15 40 0 36 -2 40 -25 40 -20 0 -25 -5 -25 -25z"/>
<path d="M6860 60 c0 -22 5 -40 10 -40 6 0 10 7 10 15 0 8 7 15 15 15 9 0 15
9 15 25 0 20 -5 25 -25 25 -22 0 -25 -4 -25 -40z"/>
<path d="M13770 60 c0 -33 3 -40 20 -40 17 0 20 7 20 40 0 33 -3 40 -20 40
-17 0 -20 -7 -20 -40z"/>
<path d="M14010 60 c0 -22 5 -40 10 -40 6 0 10 7 10 15 0 9 9 15 25 15 20 0
25 5 25 25 0 22 -4 25 -35 25 -34 0 -35 -1 -35 -40z"/>
<path d="M14280 85 c0 -8 -7 -15 -15 -15 -8 0 -15 -4 -15 -10 0 -5 7 -10 15
-10 8 0 15 -7 15 -15 0 -8 5 -15 10 -15 6 0 10 7 10 15 0 8 7 15 15 15 9 0 15
9 15 25 0 20 -5 25 -25 25 -16 0 -25 -6 -25 -15z"/>
<path d="M14520 75 c0 -16 6 -25 15 -25 8 0 15 -7 15 -15 0 -8 5 -15 10 -15 6
0 10 7 10 15 0 8 7 15 15 15 9 0 15 9 15 25 0 23 -4 25 -40 25 -36 0 -40 -2
-40 -25z"/>
</g>
</svg>
